<?xml version="1.0" encoding="UTF-8" standalone="no"?>
<svg
   version="1.1"
   viewBox="0 0 450 300"
   id="svg39"
   sodipodi:docname="splash.svg"
   inkscape:version="1.3.2 (091e20e, 2023-11-25, custom)"
   xmlns:inkscape="http://www.inkscape.org/namespaces/inkscape"
   xmlns:sodipodi="http://sodipodi.sourceforge.net/DTD/sodipodi-0.dtd"
   xmlns="http://www.w3.org/2000/svg"
   xmlns:svg="http://www.w3.org/2000/svg">
  <sodipodi:namedview
     id="namedview39"
     pagecolor="#ffffff"
     bordercolor="#000000"
     borderopacity="0.25"
     inkscape:showpageshadow="2"
     inkscape:pageopacity="0.0"
     inkscape:pagecheckerboard="0"
     inkscape:deskcolor="#d1d1d1"
     inkscape:zoom="1.4142136"
     inkscape:cx="273.65032"
     inkscape:cy="269.05413"
     inkscape:window-width="1920"
     inkscape:window-height="991"
     inkscape:window-x="-9"
     inkscape:window-y="-9"
     inkscape:window-maximized="1"
     inkscape:current-layer="svg39" />
  <defs
     id="defs1">
    <style
       id="style1">
      .cls-1, .cls-version {
        isolation: isolate;
      }

      .cls-3 {
        fill: #262057;
        stroke: #231f20;
        stroke-miterlimit: 10;
      }

      .cls-4, .cls-version {
        fill: #fff;
      }

      .cls-5 {
        fill: #f9b716;
      }

      .cls-version {
        font-family: Lato-Light, Lato;
        font-size: 16px;
        font-weight: 300;
      }
    </style>
  </defs>
  <!-- Generator: Adobe Illustrator 28.7.1, SVG Export Plug-In . SVG Version: 1.2.0 Build 142)  -->
  <g
     id="g39"
     inkscape:label="back">
    <rect
       class="cls-3"
       width="450"
       height="300"
       id="rect1" />
  </g>
  <g
     class="cls-1"
     id="g38"
     inkscape:label="version">
    <text
       class="cls-version"
       transform="translate(32.1 258.9)"
       id="text37"><tspan
         x="0"
         y="0"
         id="tspan37">Version 7.1.0</tspan></text>
  </g>
  <g
     id="g22"
     inkscape:label="desc">
    <path
       class="cls-4"
       d="M33.2,151.2c0-5.8,3.6-8.7,8-8.7s7.6,3.4,7.5,8.8c0,5.8-3.4,8.7-7.8,8.8-4.8,0-7.8-3.7-7.7-8.9h0ZM46.1,151.2c0-3.6-1.7-6.8-5-6.8s-5.4,2.2-5.4,6.9,1.7,6.9,5.2,6.9,5.2-2.4,5.2-7h0Z"
       id="path1" />
    <path
       class="cls-4"
       d="M 54.212066,161.59049 54.2,165.7 H 51.7 V 147 H 54 v 1.4 c 0.6,-0.6 1.6,-1.5 3.7,-1.5 2.1,0 5.1,1.9 5.1,6.2 0,4.3 -2.6,7.1 -6.4,7.1 -3.8,0 -2.281708,-0.55246 -2.1,-0.3 -0.09152,0.48474 -0.104161,1.08141 -0.08793,1.69049 z M 56.5,158.2 c 2.1,0 3.6,-1.7 3.7,-5 0,-3.1 -1.1,-4.6 -3.2,-4.6 -2.1,0 -2.2,0.6 -2.8,1.1 v 7.9 c 0.5,0.4 1.2,0.6 2.4,0.6 z"
       id="path2"
       sodipodi:nodetypes="ccccccsssccccscccc" />
    <path
       class="cls-4"
       d="m 70.7,146.8 c 2.6,0 4.6,1.6 4.8,4.8 v 2.3 h -8 v 0.2 c 0,3 1.8,4 4,4 2.2,0 2.6,-0.3 3.2,-0.7 l 0.5,1.4 c -0.9,0.7 -2.8,1.1 -4.4,1.1 -3.7,0 -5.7,-2.5 -5.7,-6.6 -0.136363,-3.95103 2.129979,-6.17331 5.547656,-6.50625 z m 2.4,5.5 c 0,-1.9 -0.3,-3.8 -2.6,-3.8 -2.3,0 -2.585272,0.9 -2.985272,3.8 z"
       id="path3"
       sodipodi:nodetypes="ccccssccsscccscc" />
    <path
       class="cls-4"
       d="M78.6,147h2.2v1.3c.9-.7,2.8-1.5,4.5-1.5,2.8,0,3.8,1.3,3.8,5v8.1h-2.5v-8.1c0-2.1-.4-3.1-2.4-3-.9,0-2.1.5-3.2,1.2v9.9h-2.5v-12.9h0Z"
       id="path4" />
    <path
       class="cls-4"
       d="M100.5,157c.9.5,2.5,1.1,4,1.1s3.4-.7,3.4-2.4-1.4-2.4-3.8-3.6c-2.1-1-4.3-2.7-4.3-5.2s3-4.4,5.7-4.4,3.4.5,4,.9l-.5,2c-.8-.5-1.7-.9-3.6-.9s-3.3.6-3.3,2.1.9,2.3,3.4,3.6c2.2,1.1,4.8,2.6,4.8,5.2s-2.4,4.7-5.8,4.7-4.2-.6-4.8-1l.6-2.1h.2Z"
       id="path5" />
    <path
       class="cls-4"
       d="m 112.3,153.1 c 0,-4.2 2.6,-6.4 5.9,-6.4 3.3,0 5.7,3.2 5.7,6.9 0,3.7 -2.70238,6.52798 -6.00238,6.52798 -3.3,0 -5.66883,-3.19929 -5.6,-6.9 z m 9.1,0.5 c 0,-2.8 -1,-5 -3.2,-5 -2.2,0 -3.3,1.6 -3.3,4.6 0,3 1,5 3.2,5.1 2.2,0 3.3,-1.7 3.3,-4.7 z"
       id="path6"
       sodipodi:nodetypes="csssscssscs" />
    <path
       class="cls-4"
       d="M126.9,147h2.5v7.5c0,3.2.7,3.5,2.4,3.5s2.3-.5,2.9-.9v-10.1h2.5v13.1h-.9c-.8,0-1.3,0-1.3-1v-.3c-1.1.7-2.8,1.3-4.2,1.3-3.3,0-3.8-2.2-3.8-5.6v-7.5h0Z"
       id="path7" />
    <path
       class="cls-4"
       d="M141.1,147h2.1v1.4c.6-.7,2.1-1.6,3.6-1.6s1,0,1.3.1v2.4c-.2-.1-.6-.3-1.7-.3s-2.3.5-2.8,1.1v9.8h-2.5v-12.9h0Z"
       id="path8" />
    <path
       class="cls-4"
       d="m 155.8,146.8 c 1.6,0 2.8,0.4 3.2,0.7 l -0.4,1.9 c -0.7,-0.5 -1.6,-0.7 -2.9,-0.7 -1.3,0 -3.6,1.3 -3.7,4.4 -0.1,3.3 1.5,5 3.6,5 2.1,0 2.5,-0.4 3.1,-0.7 l 0.5,1.4 c -0.8,0.7 -2.4,1.2 -4,1.2 -3.6,0 -5.7,-2.8 -5.7,-6.5 0,-6.77589 5.55586,-6.72343 6.2,-6.7 z"
       id="path9"
       sodipodi:nodetypes="sccscsccsscs" />
    <path
       class="cls-4"
       d="m 166.6,146.8 c 2.6,0 4.6,1.6 4.8,4.8 0,0.9 0,1.7 -0.1,2.3 h -8 v 0.2 c 0.1,3 1.8,4 4,4 2.2,0 2.6,-0.3 3.2,-0.7 l 0.5,1.4 c -0.9,0.7 -2.8,1.1 -4.4,1.1 -3.7,0 -5.7,-2.5 -5.7,-6.6 -0.15285,-3.8537 2.37238,-6.50527 5.7,-6.5 z m 2.4,5.5 c 0.1,-1.9 -0.3,-3.8 -2.6,-3.8 -2.3,0 -2.8,0.9 -3.2,3.8 z"
       id="path10"
       sodipodi:nodetypes="cccccsccssccscc" />
    <path
       class="cls-4"
       d="M183.2,142.7h3.6l3.2,9.8.9,3.6.9-3.6,3-9.8h3.4l2.1,17.3h-2.6l-1.1-10.7-.3-4.6-1.1,4.6-3.6,10.9h-1.3l-3.8-10.9-1.3-4.6-.3,4.6-.9,10.7h-2.4l1.7-17.3h0Z"
       id="path11" />
    <path
       class="cls-4"
       d="m 203.9,142.7 h 1.2 c 1.1,0 2.3,-0.1 4,-0.1 3.9,0 5.6,1.6 5.6,4.1 0,2.5 -0.7,3.5 -2.6,4 2.1,0 3.8,2 3.8,4.2 0,2.2 -1.60001,5.30978 -7,5.3 -3.33074,-0.006 -3.3223,-0.0121 -3.97751,-0.0276 L 203.9,160.1 v -17.3 0 z m 5.6,7.4 c 1.5,0 2.7,-1.1 2.7,-3.2 0,-2.1 -1.3,-2.7 -3.6,-2.7 -2.3,0 -1.9,0 -2.1,0.1 v 5.6 c 1.79517,0.19946 1.52227,0.16952 3,0.2 z m -0.4,8.1 c 2.6,0 4.1,-0.8 4.1,-3.2 0,-2.4 -1.3,-3.1 -4,-3.1 h -2.9 v 6 c 0.4,0.3 1.9,0.3 2.8,0.3 z"
       id="path12"
       sodipodi:nodetypes="cssscssccccccsscccsssccs" />
    <path
       class="cls-4"
       d="M218.9,157c.9.5,2.5,1.1,4.1,1.1s3.4-.7,3.4-2.4-1.4-2.4-3.8-3.6c-2.1-1-4.3-2.7-4.3-5.2s3-4.4,5.7-4.4,3.4.5,4,.9l-.5,2c-.8-.5-1.7-.9-3.6-.9s-3.3.6-3.3,2.1.9,2.3,3.4,3.6c2.2,1.1,4.8,2.6,4.8,5.2s-2.4,4.7-5.8,4.7-4.2-.6-4.8-1l.6-2.1h.1Z"
       id="path13" />
    <path
       class="cls-4"
       d="M231.9,142.7h9.9v1.9h-7.4v5.4h5.4v1.9h-5.4v5.9h8.2v1.9h-10.7v-17.3h0v.3Z"
       id="path14" />
    <path
       class="cls-4"
       d="M252.9,157c.9.5,2.5,1.1,4.1,1.1s3.4-.7,3.4-2.4-1.4-2.4-3.8-3.6c-2.1-1-4.3-2.7-4.3-5.2s3-4.4,5.7-4.4,3.4.5,4,.9l-.5,2c-.8-.5-1.7-.9-3.6-.9s-3.3.6-3.3,2.1.9,2.3,3.4,3.6c2.2,1.1,4.8,2.6,4.8,5.2s-2.4,4.7-5.8,4.7-4.2-.6-4.8-1l.6-2.1h0Z"
       id="path15" />
    <path
       class="cls-4"
       d="M264.8,153.1c0-4.2,2.6-6.4,5.9-6.4s5.7,3.2,5.7,6.9-2.6,6.4-5.9,6.4-5.7-3.2-5.6-6.9h-.1ZM273.8,153.6c0-2.8-1-5-3.2-5s-3.3,1.6-3.3,4.6,1,5,3.2,5.1c2.2,0,3.3-1.7,3.3-4.7h0Z"
       id="path16" />
    <path
       class="cls-4"
       d="M279.6,141h2.5v18.8h-2.5v-18.8Z"
       id="path17" />
    <path
       class="cls-4"
       d="M286.3,147h2.5v7.5c0,3.2.7,3.5,2.4,3.5s2.3-.5,2.9-.9v-10.1h2.5v13.1h-.9c-.8,0-1.3,0-1.3-1v-.3c-1.1.7-2.8,1.3-4.2,1.3-3.3,0-3.8-2.2-3.8-5.6v-7.5h-.1Z"
       id="path18" />
    <path
       class="cls-4"
       d="M301,148.8h-1.7v-1.3c1.1-.3,1.6-.4,1.9-1.1.2-.5.5-1.3.7-2.4h1.5v3h3.6v1.9h-3.6v6.5c0,2.5.2,2.7,1.4,2.7s1.8-.3,2.2-.5l.5,1.4c-.7.5-2.3,1.1-3.6,1.1s-3-.6-3-3.3v-7.9h.1Z"
       id="path19" />
    <path
       class="cls-4"
       d="M309.8,143.1c0-1,.9-1.7,1.8-1.7s1.6.7,1.6,1.5-.9,1.7-1.8,1.7-1.6-.6-1.6-1.5h0ZM310.3,147h2.5v12.9h-2.5v-12.9h0Z"
       id="path20" />
    <path
       class="cls-4"
       d="m 316,153.1 c 0,-4.2 2.6,-6.4 5.9,-6.4 3.3,0 5.7,3.2 5.7,6.9 0,3.7 -2.6,6.4 -5.9,6.4 -3.3,0 -5.79375,-3.18438 -5.69375,-6.88438 z m 9.1,0.5 c 0,-2.8 -1,-5 -3.2,-5 -2.2,0 -3.3,1.6 -3.3,4.6 0,3 1,5 3.2,5.1 2.2,0 3.3,-1.7 3.3,-4.7 z"
       id="path21"
       sodipodi:nodetypes="csssccssscs" />
    <path
       class="cls-4"
       d="M330.7,147h2.2v1.3c.9-.7,2.8-1.5,4.5-1.5,2.8,0,3.8,1.3,3.8,5v8.1h-2.5v-8.1c0-2.1-.4-3.1-2.4-3-.9,0-2.1.5-3.2,1.2v9.9h-2.5v-12.9h.1Z"
       id="path22" />
  </g>
  <g
     id="g9"
     inkscape:label="star"
     transform="matrix(0.0834278,0,0,0.0834278,32.369226,64.999974)"
     style="display:inline">
    <path
       id="path3084_12_"
       sodipodi:type="star"
       sodipodi:cx="530.82294"
       sodipodi:sides="4"
       sodipodi:cy="684.49103"
       sodipodi:r1="105.54523"
       sodipodi:r2="39.051735"
       sodipodi:arg1="0.88708702"
       sodipodi:arg2="1.6724852"
       inkscape:flatsided="false"
       inkscape:randomized="0"
       inkscape:rounded="0"
       inkscape:transform-center-x="-1.0953549"
       inkscape:transform-center-y="-0.94444803"
       fill="#262058"
       d="m 597.493,766.31338 -70.63435,-42.97235 -77.85807,27.82006 42.97236,-70.63435 -27.82007,-77.85807 70.63435,42.97236 77.85807,-27.82007 -42.97235,70.63435 z"
       transform="matrix(0.49415337,-0.6147671,0.60573319,0.50126234,-172.66243,272.09654)"
       style="display:inline;fill:#fbbf52;fill-opacity:1"
       inkscape:label="star1" />
  </g>
  <g
     id="g10"
     style="display:inline;fill:#ffffff;fill-opacity:1"
     inkscape:label="paths"
     transform="matrix(0.0834278,0,0,0.0834278,32.369226,64.999974)">
    <path
       fill="#726aa5"
       d="m 187.652,773.404 c 0,22.767 20.112,41.225 44.938,41.225 h 669.129 c 24.814,0 44.934,-18.458 44.934,-41.225 v -73.978 c 0,-22.761 -20.119,-41.219 -44.934,-41.219 H 232.59 c -24.826,0 -44.938,18.453 -44.938,41.219 z"
       id="path3-5"
       style="fill:#ffffff;fill-opacity:1"
       transform="translate(-187.652,-143.26223)" />
    <path
       fill="#726aa5"
       d="m 187.652,568.841 c 0,22.77 20.112,41.225 44.938,41.225 h 669.129 c 24.814,0 44.934,-18.455 44.934,-41.225 V 494.87 c 0,-22.765 -20.119,-41.219 -44.934,-41.219 L 827.22921,453.28127 743.14352,477.60813 693.33389,608.13342 636.06221,477.11371 556.84381,453.651 H 232.59 c -24.826,0 -44.938,18.452 -44.938,41.219 z"
       id="path2-5"
       sodipodi:nodetypes="sssssscccccsss"
       style="fill:#ffffff;fill-opacity:1"
       transform="translate(-187.652,-143.26223)" />
    <path
       fill="#726aa5"
       d="m 187.652,364.285 c 0,22.767 20.11428,40.92939 44.93858,41.21975 114.22597,1.33607 215.58442,-0.065 333.61284,0 l 71.14725,-22.11024 55.98322,-132.31418 52.72763,132.81418 68.63861,21.36024 87.01887,0.252 c 24.8139,0.0719 44.934,-18.455 44.934,-41.222 V 290.31 c 0,-22.764 -20.119,-41.221 -44.934,-41.221 H 232.59 c -24.826,0 -44.938,18.452 -44.938,41.221 z"
       id="path1-9"
       sodipodi:nodetypes="sscccccsssssss"
       style="fill:#ffffff;fill-opacity:1"
       transform="translate(-187.652,-143.26223)"
       inkscape:label="path1" />
  </g>
  <g
     id="g8"
     inkscape:label="capella"
     style="display:inline;fill:#ffffff;fill-opacity:1"
     transform="matrix(0.08639489,0,0,0.08639489,28.574592,64.210639)">
    <path
       id="path38"
       style="fill:#ffffff;fill-opacity:1;stroke-width:3.77953"
       d="m 3478.2226,254.23964 -16.3184,1.02932 -16.3184,1.03124 -14,2.02148 -14,2.01956 -16,3.55272 -16,3.55079 -15,4.30858 -15,4.30859 -12.8105,4.64647 -12.8086,4.64844 -8.9414,4.09573 -8.9395,4.09568 0.07,1.60744 0.07,1.60743 11.7402,30.99999 11.7403,30.99997 1.4395,-0.22072 1.4394,-0.21884 16,-5.46484 16,-5.46285 16,-3.99806 16,-3.99806 13,-2.48829 13,-2.49022 11.457,-1.18163 11.4571,-1.18167 15.0429,0.64649 15.043,0.64845 9.3379,1.03321 9.3379,1.03321 5.6621,1.46483 5.6621,1.46483 4.3574,2.0996 4.3594,2.09768 3.5215,3.5215 3.5215,3.52343 2.3125,5.08592 2.3125,5.08594 1.1015,8.50001 1.1016,8.49997 -0.2948,15.50003 -0.2929,15.5 -12.5,0.22072 -12.5,0.22072 -21.5,1.05468 -21.5,1.05271 -14.5,1.49027 -14.5,1.48827 -15.5,2.56834 -15.5,2.56641 -13,3.34182 -13,3.33982 -9.086,3.48242 -9.0839,3.48245 -7.4161,3.71679 -7.414,3.71482 -8.5,5.5098 -8.5,5.50975 -8.5489,8.62111 -8.5488,8.61913 -3.9179,5.99607 -3.918,5.99415 -3.3692,7.79493 -3.3711,7.79494 -1.9003,9.21093 -1.9004,9.20897 -0.01,11.50001 -0.01,11.5 1.4786,9 1.4765,9 1.8809,6.5 1.8808,6.49999 3.1582,7.57618 3.1582,7.57421 5.0098,8.14061 5.0098,8.13868 8.2207,8.70898 8.2187,8.70705 7.5859,5.6406 7.586,5.64065 9.0586,4.6797 9.0566,4.67773 10.3575,3.4453 10.3554,3.44531 8,1.59571 8,1.59375 8,0.83592 8,0.83399 7.6445,0.13266 7.6446,0.13266 10.3516,-1.02342 10.3574,-1.02538 8,-1.58597 8,-1.58789 8.5,-2.44532 8.5,-2.44724 8.5,-3.60741 8.5,-3.60937 8.8711,-4.96683 8.873,-4.96679 6.4297,-4.86716 6.4316,-4.8672 h 1.3243 1.3242 l 0.4258,8.74998 0.4258,8.75002 2.5683,5.58985 2.5684,5.59177 3.2011,2.27932 3.2012,2.27928 4.6777,1.55861 4.6778,1.56052 42.75,0.40237 42.75,0.4043 V 514.02089 378.61073 l -1.0782,-10.92381 -1.0761,-10.92381 -2.3086,-11.00001 -2.3086,-11.00002 -3.4258,-9.11716 -3.4258,-9.11524 -4.4375,-7.78515 -4.4394,-7.78711 -6.9063,-7.40625 -6.9043,-7.40821 -6.2051,-4.42776 -6.205,-4.42968 -7.8907,-3.94726 -7.8886,-3.94726 -9,-3.01172 -9,-3.00975 -9.0703,-2.01562 -9.0684,-2.01563 -11.8418,-1.55274 -11.8418,-1.55274 -21.7695,-0.9961 z m 51.1523,213.02347 h 0.8555 0.8554 v 44.91208 44.91017 l -3.1504,2.65039 -3.1484,2.64843 -5.6016,2.8125 -5.5996,2.81249 -7.8964,2.63671 -7.8965,2.63868 -9.7618,1.99026 -9.7597,1.98826 -10.3438,-0.0801 -10.3418,-0.0782 -6.25,-1.35742 -6.25,-1.35938 -6.3164,-3.10934 -6.3164,-3.10938 -4.7969,-4.59572 -4.7968,-4.59571 -2.9219,-4.6074 -2.9238,-4.60743 -1.9668,-6.36522 -1.9668,-6.36525 -0.6016,-8.13476 -0.6035,-8.13479 1.6445,-6.97852 1.6426,-6.97655 2.3769,-4.05664 2.377,-4.05665 4.959,-4.63672 4.957,-4.63865 5.877,-2.96289 5.8769,-2.96485 8.5781,-3.0254 8.5782,-3.02539 11.4219,-2.52734 11.4218,-2.5254 11,-1.55078 11,-1.54881 12.8946,-1.01367 z"
       inkscape:label="a2" />
    <path
       style="fill:#ffffff;fill-opacity:1;stroke-width:3.77953"
       d="M 3188.0851,364.76319 V 86.263203 h -56 -56 V 364.76319 643.2632 h 56 56 z"
       id="path42"
       inkscape:label="l2" />
    <path
       style="fill:#ffffff;fill-opacity:1;stroke-width:3.77953"
       d="M 2942.0851,364.76319 V 86.263203 h -56 -56 V 364.76319 643.2632 h 56 56 z"
       id="path40"
       inkscape:label="l1" />
    <path
       id="path34"
       style="fill:#ffffff;fill-opacity:1;stroke-width:3.77953"
       d="m 2582.5858,257.06975 -20,0.0265 -19.9999,0.0265 -12,1.61718 -12,1.61719 -7.5001,1.52345 -7.4999,1.52341 -10.4668,3.02344 -10.4668,3.02343 -12.0333,5.17776 -12.0331,5.17773 -8.2715,4.9336 -8.2715,4.93357 -8.5742,6.43556 -8.5743,6.43358 -8.3535,8.35352 -8.3535,8.35351 -5.9219,7.77932 -5.9219,7.77929 -4.1171,6.72658 -4.1153,6.72457 -3.8887,7.75393 -3.8867,7.75388 -3.746,10.00002 -3.7481,9.99999 -2.7813,11.00001 -2.7832,10.99998 -1.6562,11.00001 -1.6543,11.00001 -0.5781,16.49998 -0.5762,16.50002 1.2148,13.99998 1.2168,14.00001 1.9102,11.00001 1.9121,10.99998 2.4824,9.22072 2.4825,9.22266 3.6386,9.77733 3.6387,9.7793 4.8828,9.55858 4.8828,9.55861 5.3633,7.80272 5.3633,7.80469 6.3769,7.15234 6.3789,7.15238 7.1524,6.37693 7.1504,6.37697 7.8437,5.39063 7.8418,5.38866 10.5196,5.37498 10.5214,5.37305 10.4219,3.62109 10.4219,3.61916 9.5781,2.40038 9.5781,2.40038 10.5899,1.63283 10.5918,1.63476 10.4082,0.79688 10.4101,0.79884 9.5001,0.12699 9.5,0.12699 14.5,-0.98245 14.4999,-0.98045 12,-1.59764 12,-1.59768 14.2247,-2.92577 14.2245,-2.92774 11.9375,-3.46874 11.9375,-3.46877 12.0371,-4.8867 12.0352,-4.88674 8.0527,-4.72071 8.0508,-4.71874 v -1.42968 -1.42772 l -8.5606,-27.20315 -8.5605,-27.20507 -0.2891,-0.28914 -0.2891,-0.28724 -11.9004,3.97266 -11.9004,3.97459 -15,3.01757 -15,3.01758 -16,2.15822 -16,2.15626 -20,0.0567 -20,0.0567 -9.543,-1.65823 -9.541,-1.65623 -6.9589,-2.13868 -6.9571,-2.13672 -6,-2.50976 -6,-2.51172 -7,-4.47655 -7,-4.47851 -6.3398,-6.15629 -6.3399,-6.15624 -3.7714,-5.49997 -3.7735,-5.50001 -2.7812,-5.50001 -2.7832,-5.5 -2.2813,-6.70314 -2.2793,-6.70508 -1.502,-7.79489 -1.4999,-7.7969 -0.6094,-5.24999 -0.6094,-5.25 h 123.8946 123.8925 l 1.2246,-9.75001 1.2246,-9.75 c 0,0 1.2459,-21.32651 1.4269,-31.90138 0.181,-10.57552 -0.341,-31.54979 -0.341,-31.54979 l -1.1679,-9.77344 -1.17,-9.77537 -2.9921,-12.2129 -2.9942,-12.21093 -3.5097,-8.70704 -3.5098,-8.70702 -3.6074,-6.45116 -3.6075,-6.4512 -5.6718,-7.6289 -5.6719,-7.63086 -7.9961,-7.49999 -7.9961,-7.50002 -7.3867,-4.9531 -7.3867,-4.95119 -9.543,-4.73045 -9.541,-4.72853 -10.5,-3.46677 -10.5,-3.46681 -10.5,-2.07814 -10.5,-2.07617 -9,-1.12108 z m -24.8535,74.13476 9.4258,1.06639 9.4277,1.06643 4.5723,1.35545 4.5742,1.35742 5.3086,2.6914 5.3106,2.68948 4.8261,4.51563 4.8262,4.51366 3,4.67773 3.002,4.67772 2.4277,6.47267 2.4297,6.4746 1.6113,9.42576 1.6114,9.42777 v 13.32226 13.3242 h -69.9376 -69.9375 l 0.5371,-3.75001 0.5372,-3.74997 2.4902,-11.50001 2.4922,-11.5 3.2422,-8.6758 3.2422,-8.67575 3.416,-5.82425 3.4179,-5.82422 8,-8.10545 8.0001,-8.10742 7.4999,-3.55272 7.5001,-3.55469 7.4999,-1.53127 7.5001,-1.53124 6.0722,-0.5879 z"
       sodipodi:nodetypes="cccccccccccccccccccccccccccccccccccccccccccccccccccccccccccccccccccccccccccccccccccccccccccccccccccccccccccccccscccccccccccccccccccccccccccccccccccccccccccccccccccccccccc"
       inkscape:label="e1" />
    <path
       id="path24-4"
       style="fill:#ffffff;fill-opacity:1;stroke-width:3.77953"
       d="m 2127.5858,256.10488 -11,0.66017 -11,0.66017 -10.1894,1.38474 -10.1875,1.38478 -10.3125,2.5996 -10.3106,2.5996 -9,3.53518 -9,3.53514 -7.5,4.04689 -7.5,4.04686 -5.668,3.83202 -5.666,3.83206 -7.4824,6.01951 -7.4824,6.01954 h -1.1016 -1.0996 v -18.99999 -19.00003 h -52 -52 v 276 276 h 56.1367 56.1368 l -0.4688,-88.07029 -0.4688,-88.07229 2.0821,0.62306 2.082,0.62502 11.1817,2.9043 11.1835,2.90426 11.8165,1.7051 11.8183,1.70506 20,-0.0189 20,-0.0189 12.4981,-1.68555 12.5,-1.68556 10.8515,-2.44921 10.8516,-2.44921 10.1523,-3.39844 10.1543,-3.39647 9.3614,-4.21485 9.3613,-4.21486 8.9082,-5.08592 8.9082,-5.08596 10.2266,-7.68359 10.2265,-7.68359 11,-11.40431 11,-11.40427 6.7539,-9.47267 6.7559,-9.4707 7.2988,-14.5 7.3008,-14.50001 4.1719,-12.56247 4.1719,-12.56058 2.4375,-11.43942 2.4394,-11.43753 1.3301,-9.49999 1.332,-9.5 c 0,0 0.477,-15.54167 0.466,-23.37501 -0.011,-7.83333 -0.534,-23.625 -0.534,-23.625 l -1.7754,-11.94921 -1.7754,-11.95116 -3.3476,-13.04882 -3.3457,-13.05079 -3.1661,-8 -3.164,-8.00001 -5.3653,-10.30273 -5.3632,-10.30076 -5.8125,-8.18166 -5.8106,-8.18165 -10,-10.05661 -10,-10.05471 -10.789,-7.20118 -10.7871,-7.1992 -8.4571,-4.03711 -8.457,-4.0371 -10.2559,-3.41605 -10.2539,-3.41794 -10.082,-2.04102 -10.0801,-2.04102 -12.4199,-1.09376 z m -22,79.77347 8.7149,2.16601 8.7168,2.16601 6.6386,3.23633 6.6407,3.23826 6.8203,6.31446 6.8203,6.31444 3.8848,6.22462 3.8828,6.22462 2.3398,5.5 2.3399,5.49997 2.3476,8.48633 2.3496,8.48439 1.6524,11.51562 1.6523,11.51369 c 0,0 0.7923,13.45831 0.814,20.12497 0.022,6.66667 -0.684,19.87502 -0.684,19.87502 l -1.2871,9.49999 -1.2871,9.49999 -1.9492,8.50001 -1.9512,8.50001 -2.6211,8.00001 -2.6191,7.99997 -3.9942,8.00002 -3.9922,8.00001 -4.0156,6 -4.0156,6 -8.6524,8.50001 -8.6523,8.49997 -7.4473,4.19531 -7.4472,4.19338 -7.5,2.4824 -7.5,2.48046 -7.8223,1.07422 -7.8223,1.07426 -7.1777,-0.13871 -7.1777,-0.1406 -8.8653,-0.78516 -8.8652,-0.78516 -7.6348,-1.69531 -7.6347,-1.69337 -5.0001,-1.95701 -4.9999,-1.95704 -4.2481,-2.67382 -4.25,-2.67383 V 459.64588 358.5287 l 3.8301,-2.53514 3.8301,-2.53516 7.209,-3.62891 7.207,-3.63084 8.711,-2.9082 8.7128,-2.90823 10.5,-2.19726 10.5,-2.19727 15.5,-0.0548 z"
       sodipodi:nodetypes="cccccccccccccccccccccccccccccccccccccccccccccccccccccccccccsccccccccccccccccccccccccccccccccccccccsccccccccccccccccccccccccccccccccccccccccc"
       inkscape:label="p1" />
    <path
       id="path30-3"
       style="fill:#ffffff;fill-opacity:1;stroke-width:3.77953"
       d="m 1611.2225,254.23964 -16.1093,1.0215 -16.1075,1.02346 -11.2109,1.55467 -11.209,1.55663 -10.5,2.00001 -10.5,2.00002 -12,2.98632 -12,2.98631 -11.9414,3.50979 -11.9414,3.51171 -12.5586,4.54881 -12.5586,4.54885 -9.1602,4.27733 -9.1582,4.27733 11.416,30.35939 11.418,30.36133 0.9121,2.12303 0.9141,2.12307 17.3281,-5.82031 17.3301,-5.81836 16,-3.99609 16,-3.99417 13.1738,-2.54294 13.1758,-2.54298 11.9668,-1.13477 11.9668,-1.13673 20.3594,1.14456 20.3574,1.14451 7,1.38085 7,1.38089 4.5,1.75586 4.5,1.75585 3.9765,2.86133 3.9786,2.86133 2.7637,4.11522 2.7617,4.1133 1.0449,3.61326 1.043,3.61326 0.9941,8.51369 0.9942,8.51365 -0.2775,14.48636 -0.2793,14.48633 -25.2519,0.65624 -25.2539,0.65624 -14.2461,1.12501 -14.2481,1.12498 -16.5,2.04495 -16.5,2.04688 -10,1.96679 -10,1.96679 -11.4844,3.03318 -11.4843,3.03126 -8.543,3.29885 -8.543,3.29881 -7.4726,3.74611 -7.4727,3.74412 -8.5,5.49415 -8.5,5.49414 -9.5,9.6367 -9.5,9.63477 -4.3789,7.77737 -4.3789,7.77732 -2.8203,8.22266 -2.8223,8.22267 -1.0429,6.49999 -1.043,6.49999 -0.01,11.61914 -0.01,11.61918 1.5312,8.88083 1.5332,8.88087 2.4278,8.00001 2.4277,7.99998 4.4258,9 4.4258,9 4.9746,7.00002 4.9766,6.99999 6.5664,6.6172 6.5664,6.61523 6.8222,5.14647 6.8223,5.1465 10.5,5.35937 10.5,5.35937 6.0293,2.05078 6.0313,2.05077 7.9687,2.00976 7.9707,2.00976 8,1.06447 8,1.06639 3.5,0.34167 3.5,0.34167 7.5762,0.16025 7.5762,0.16026 10.9238,-1.06443 10.9238,-1.0625 11.4199,-2.52541 11.4219,-2.5254 8.5781,-3.02733 8.5801,-3.02736 10,-5.01755 10,-5.01562 8.2012,-5.45511 8.1992,-5.45703 1.1719,-1.41014 1.1719,-1.41211 h 1.3769 1.3789 l 0.01,0.75001 0.01,0.74997 1.0078,8.79492 1.0078,8.79493 2.1192,4.50587 2.1172,4.50781 3.3203,2.53319 3.3222,2.53126 4.795,1.59572 4.7949,1.59568 42.75,0.40237 42.75,0.40429 V 514.45247 379.4759 l -1.0254,-10.35741 -1.0254,-10.35549 -1.5234,-8.49996 -1.5235,-8.50001 -2.5488,-8.5 -2.5488,-8.50001 -3.3106,-7.19142 -3.3105,-7.19335 -3.8418,-5.7871 -3.8418,-5.78906 -5.9531,-6.36329 -5.9532,-6.36329 -6.0468,-4.29101 -6.0469,-4.28904 -8,-3.99024 -8,-3.99024 -7,-2.49611 -7,-2.49608 -11,-2.58595 -11,-2.58788 -12,-1.55471 -12,-1.55467 -21.6817,-0.99999 z m 52.8633,212.88672 v 44.97854 44.98046 l -3.1426,2.64453 -3.1426,2.64454 -4.6074,2.33008 -4.6074,2.332 -8.8125,3.10745 -8.8105,3.10742 -9.8457,2.00583 -9.8457,2.00587 -10.3438,-0.0801 -10.3418,-0.0782 -6.5,-1.40818 -6.5,-1.40821 -6.1582,-3.02929 -6.1563,-3.02929 -5.4921,-5.40431 -5.4922,-5.40431 -3.1074,-6.33007 -3.1094,-6.32814 -1.5918,-7.49998 -1.5918,-7.50002 0.5371,-8.04294 0.5352,-8.04299 2.1484,-5.74216 2.1465,-5.74027 5.375,-5.80468 5.373,-5.80274 5.791,-3.08005 5.793,-3.08009 7.5,-2.96289 7.5,-2.96288 8.5,-2.10743 8.5,-2.10742 11.5,-1.94336 11.5,-1.94139 10,-1.00589 10,-1.00392 8.25,-0.6328 z"
       inkscape:label="a1" />
    <path
       style="fill:#ffffff;fill-opacity:1;stroke-width:3.77953"
       d="m 1253.0851,648.23902 14.5,-1.00445 11.5,-1.54843 11.5,-1.54844 12,-2.50994 12,-2.50999 9,-2.47245 9,-2.47245 16.5,-5.57084 16.5,-5.57083 0.8595,-0.79355 0.8596,-0.79355 -0.739,-41.9672 -0.739,-41.96723 -10.1206,4.80956 -10.1205,4.80956 -11.7437,4.02671 -11.7437,4.02671 -14.2563,3.54074 -14.2563,3.5407 -11.5,1.92858 -11.5,1.92854 -12.5,1.20355 -12.5,1.20359 -15,-0.57199 -15,-0.57199 -11.9307,-2.07425 -11.9307,-2.07428 -11.8115,-3.94915 -11.8116,-3.94911 -9.2577,-4.62755 -9.2578,-4.6275 -8.5,-5.59056 -8.5,-5.5906 -13.0463,-13.06885 -13.0464,-13.06889 -6.2941,-9.5 -6.2941,-9.49999 -5.8016,-12 -5.8015,-12 -3.0606,-9.49999 -3.0606,-9.5 -1.657,-6.49999 -1.657,-6.50003 -1.9226,-10.99998 -1.9227,-11.00001 c 0,0 -1.6389,-14.00061 -1.8396,-21.00091 -0.2008,-7.0003 0.6351,-21.0009 0.6351,-21.0009 l 1.2067,-10.49912 1.2067,-10.49906 2.0063,-10.46956 2.0062,-10.46955 3.5059,-10.53045 3.5058,-10.53044 4.8352,-10.06405 4.8351,-10.06405 6.2589,-9.35713 6.2589,-9.35716 10.0374,-10.42118 10.0374,-10.42118 8.5342,-6.37045 8.5343,-6.37047 10.5,-5.45188 10.5,-5.45188 10.0918,-3.49655 10.0919,-3.49654 9.4081,-2.03207 9.4082,-2.03209 10.3559,-1.05666 10.356,-1.05666 10.144,0.004 10.1441,0.004 14,1.03741 14,1.03741 10.5,1.52634 10.5,1.52633 10,2.35964 10,2.35963 9.5,3.1636 9.5,3.1636 13.1482,6.29273 13.1483,6.29272 0.5252,-2.63377 0.5253,-2.63377 7.6449,-42.84826 7.6449,-42.84825 -0.3341,-0.33423 -0.3341,-0.33422 -24.9842,-5.46994 -24.9842,-5.46995 -12.5,-2.09409 -12.5,-2.09408 -13,-1.50583 -13,-1.50582 -24.2492,-1.12602 -24.2492,-1.12603 -18.2508,1.13628 -18.2508,1.13627 -13.0315,1.91402 -13.0315,1.91401 -11.9685,2.66765 -11.9685,2.66765 -16.5,5.42316 -16.5,5.42315 -17,8.37379 -17,8.37378 -11.1755,7.48842 -11.1756,7.4884 -7.6799,6.27549 -7.6799,6.27549 -6.0723,5.59958 -6.0721,5.59958 -9.3236,10.8868 -9.3236,10.88679 -7.353,11.11321 -7.353,11.11322 -4.6442,8.59862 -4.6442,8.59861 -4.4714,10.67252 -4.4714,10.67255 -4.0015,12.51674 -4.0015,12.51673 -2.9777,14.71212 -2.9777,14.71211 -1.3009,10.49998 -1.301,10.50001 c 0,0 -1.72443,18.66666 -1.70277,27.99999 0.0217,9.33333 1.83277,27.99999 1.83277,27.99999 l 2.2155,14.5 2.2155,14.50001 2.8916,12 2.8916,12 3.6801,10.87631 3.6802,10.87634 4.7968,10.85126 4.7969,10.85125 4.7558,8.27244 4.7558,8.2724 5.0022,7.50002 5.0022,7.49998 6.7422,8.50001 6.7421,8.5 11.8503,11.57696 11.8503,11.577 10.4008,7.73219 10.4009,7.73223 11.8919,7.03699 11.8918,7.03703 11.7073,5.25472 11.7073,5.25471 11.5927,4.07078 11.5926,4.07081 14.4073,3.5785 14.4074,3.57853 11.5,1.93383 11.5,1.9338 12.5,1.08242 12.5,1.08242 4.5,0.30878 4.4999,0.30879 13.5001,0.16479 13.4999,0.16479 z"
       id="path26-8"
       sodipodi:nodetypes="ccccccccccccccccccccccccccccccccccccccccccccccscccccccccccccccccccccccccccccccccccccccccccccccccccccccccccccccccccccccccccccccscccccccccccccccccccccccccccccccccccc"
       inkscape:label="c1" />
  </g>
  <g
     id="g7"
     inkscape:label="tm"
     style="display:inline;fill:#262057;fill-opacity:1"
     transform="matrix(0.08412644,0,0,0.08412644,36.352846,65.065979)">
    <path
       style="font-size:50.8px;font-family:Calibri;-inkscape-font-specification:Calibri;fill:#ffffff;fill-opacity:1;stroke-width:0.564087"
       d="m 3749.7882,224.30152 q 0,0.42306 -0.2113,0.74035 -0.2113,0.31729 -0.7403,0.52883 -0.5289,0.15859 -1.375,0.26438 -0.7933,0.15863 -2.1153,0.15863 -1.2163,0 -2.1153,-0.15863 -0.8462,-0.10571 -1.3749,-0.26438 -0.476,-0.21146 -0.6875,-0.52883 -0.2113,-0.31729 -0.2113,-0.74035 v -59.59886 h -0.1058 l -24.379,59.86327 q -0.1587,0.3702 -0.4759,0.6346 -0.2642,0.26441 -0.8461,0.47594 -0.5289,0.15862 -1.3221,0.21146 -0.7404,0.10575 -1.798,0.10575 -1.1106,0 -1.9038,-0.10575 -0.7932,-0.10575 -1.3221,-0.26442 -0.5288,-0.21146 -0.8461,-0.47596 -0.2642,-0.26442 -0.3704,-0.58171 l -23.3212,-59.86326 h -0.053 v 59.59886 q 0,0.42307 -0.2113,0.74034 -0.2113,0.3173 -0.7404,0.52884 -0.5288,0.15859 -1.3749,0.26438 -0.8462,0.15863 -2.1682,0.15863 -1.2692,0 -2.1153,-0.15863 -0.8461,-0.10575 -1.375,-0.26438 -0.476,-0.21146 -0.6875,-0.52884 -0.1587,-0.31729 -0.1587,-0.74034 v -62.93046 q 0,-2.22108 1.1634,-3.17296 1.1635,-0.9519 2.5912,-0.9519 h 5.4999 q 1.6922,0 2.9614,0.31729 1.2692,0.31729 2.2211,1.00477 0.9519,0.68748 1.5864,1.74515 0.6347,1.05764 1.1106,2.48548 l 19.8311,49.55114 h 0.2641 l 20.6243,-49.39249 q 0.5817,-1.58649 1.2692,-2.69702 0.6874,-1.11055 1.4807,-1.74513 0.8461,-0.68747 1.8509,-0.9519 1.0048,-0.31729 2.3268,-0.31729 h 5.7643 q 0.7932,0 1.4807,0.26446 0.7403,0.21146 1.2163,0.74034 0.5288,0.47597 0.8461,1.26921 0.3171,0.74034 0.3171,1.85089 z"
       id="path45"
       inkscape:label="M" />
    <path
       style="font-size:50.8px;font-family:Calibri;-inkscape-font-specification:Calibri;fill:#ffffff;fill-opacity:1;stroke-width:0.564087"
       d="m 3665.4931,161.15951 q 0,1.00477 -0.1058,1.74514 -0.1058,0.74034 -0.3704,1.21628 -0.2113,0.42307 -0.5817,0.6346 -0.3175,0.21147 -0.7404,0.21147 h -19.2493 v 59.33445 q 0,0.42307 -0.2113,0.74035 -0.2113,0.31729 -0.7404,0.52884 -0.5288,0.15859 -1.4277,0.26438 -0.8462,0.15862 -2.1683,0.15862 -1.2691,0 -2.1682,-0.15862 -0.899,-0.10575 -1.4278,-0.26438 -0.5288,-0.21147 -0.7404,-0.52884 -0.2113,-0.31729 -0.2113,-0.74035 v -59.33442 h -19.2492 q -0.4231,0 -0.7933,-0.21147 -0.3175,-0.21146 -0.5288,-0.6346 -0.2117,-0.47593 -0.3704,-1.21628 -0.1058,-0.74037 -0.1058,-1.74514 0,-1.00478 0.1058,-1.74513 0.1591,-0.79324 0.3704,-1.2692 0.2112,-0.47594 0.5288,-0.68747 0.3704,-0.21146 0.7933,-0.21146 h 47.5944 q 0.4231,0 0.7404,0.21146 0.3704,0.21147 0.5817,0.68747 0.2642,0.47596 0.3704,1.2692 0.1058,0.74035 0.1058,1.74513 z"
       id="text43"
       inkscape:label="T" />
  </g>
</svg>
