<?xml version="1.0" encoding="UTF-8"?>
<svg xmlns="http://www.w3.org/2000/svg" version="1.1" viewBox="0 0 450 300">
  <defs>
    <style>
      .cls-1, .cls-version {
        isolation: isolate;
      }

      .cls-3 {
        fill: #262057;
        stroke: #231f20;
        stroke-miterlimit: 10;
      }

      .cls-4, .cls-version {
        fill: #fff;
      }

      .cls-5 {
        fill: #f9b716;
      }

      .cls-version {
        font-family: Lato-Light, Lato;
        font-size: 16px;
        font-weight: 300;
      }
    </style>
  </defs>
  <!-- Generator: Adobe Illustrator 28.7.1, SVG Export Plug-In . SVG Version: 1.2.0 Build 142)  -->
  <g>
    <g id="Layer_1">
      <rect class="cls-3" width="450" height="300"/>
      <g id="Layer_1-2">
        <g>
          <g id="Layer_1-2-2" data-name="Layer_1-2">
            <g>
              <g>
                <path class="cls-4" d="M33.2,151.2c0-5.8,3.6-8.7,8-8.7s7.6,3.4,7.5,8.8c0,5.8-3.4,8.7-7.8,8.8-4.8,0-7.8-3.7-7.7-8.9h0ZM46.1,151.2c0-3.6-1.7-6.8-5-6.8s-5.4,2.2-5.4,6.9,1.7,6.9,5.2,6.9,5.2-2.4,5.2-7h0Z"/>
                <path class="cls-4" d="M54.2,161.5v4.2h-2.5v-18.7h2.3v1.4c.6-.6,1.6-1.5,3.7-1.5s5.1,1.9,5.1,6.2-2.6,7.1-6.4,7.1-1.6-.1-2.1-.3v1.7h0ZM56.5,158.2c2.1,0,3.6-1.7,3.7-5,0-3.1-1.1-4.6-3.2-4.6s-2.2.6-2.8,1.1v7.9c.5.4,1.2.6,2.4.6h-.1Z"/>
                <path class="cls-4" d="M70.7,146.8c2.6,0,4.6,1.6,4.8,4.8,0,.9,0,1.7,0,2.3h-8v.2c0,3,1.8,4,4,4s2.6-.3,3.2-.7l.5,1.4c-.9.7-2.8,1.1-4.4,1.1-3.7,0-5.7-2.5-5.7-6.6s1.9-6.5,5.8-6.6h-.1ZM73.1,152.3c0-1.9-.3-3.8-2.6-3.8s-2.8.9-3.2,3.8h5.8Z"/>
                <path class="cls-4" d="M78.6,147h2.2v1.3c.9-.7,2.8-1.5,4.5-1.5,2.8,0,3.8,1.3,3.8,5v8.1h-2.5v-8.1c0-2.1-.4-3.1-2.4-3-.9,0-2.1.5-3.2,1.2v9.9h-2.5v-12.9h0Z"/>
                <path class="cls-4" d="M100.5,157c.9.5,2.5,1.1,4,1.1s3.4-.7,3.4-2.4-1.4-2.4-3.8-3.6c-2.1-1-4.3-2.7-4.3-5.2s3-4.4,5.7-4.4,3.4.5,4,.9l-.5,2c-.8-.5-1.7-.9-3.6-.9s-3.3.6-3.3,2.1.9,2.3,3.4,3.6c2.2,1.1,4.8,2.6,4.8,5.2s-2.4,4.7-5.8,4.7-4.2-.6-4.8-1l.6-2.1h.2Z"/>
                <path class="cls-4" d="M112.3,153.1c0-4.2,2.6-6.4,5.9-6.4s5.7,3.2,5.7,6.9-2.6,6.4-5.9,6.4-5.7-3.2-5.6-6.9h0ZM121.4,153.6c0-2.8-1-5-3.2-5s-3.3,1.6-3.3,4.6,1,5,3.2,5.1c2.2,0,3.3-1.7,3.3-4.7h0Z"/>
                <path class="cls-4" d="M126.9,147h2.5v7.5c0,3.2.7,3.5,2.4,3.5s2.3-.5,2.9-.9v-10.1h2.5v13.1h-.9c-.8,0-1.3,0-1.3-1v-.3c-1.1.7-2.8,1.3-4.2,1.3-3.3,0-3.8-2.2-3.8-5.6v-7.5h0Z"/>
                <path class="cls-4" d="M141.1,147h2.1v1.4c.6-.7,2.1-1.6,3.6-1.6s1,0,1.3.1v2.4c-.2-.1-.6-.3-1.7-.3s-2.3.5-2.8,1.1v9.8h-2.5v-12.9h0Z"/>
                <path class="cls-4" d="M155.8,146.8c1.6,0,2.8.4,3.2.7l-.4,1.9c-.7-.5-1.6-.7-2.9-.7s-3.6,1.3-3.7,4.4c-.1,3.3,1.5,5,3.6,5s2.5-.4,3.1-.7l.5,1.4c-.8.7-2.4,1.2-4,1.2-3.6,0-5.7-2.8-5.7-6.5s2.1-6.8,6.2-6.8h0c0,.1,0,.1,0,.1Z"/>
                <path class="cls-4" d="M166.6,146.8c2.6,0,4.6,1.6,4.8,4.8,0,.9,0,1.7-.1,2.3h-8v.2c.1,3,1.8,4,4,4s2.6-.3,3.2-.7l.5,1.4c-.9.7-2.8,1.1-4.4,1.1-3.7,0-5.7-2.5-5.7-6.6s1.9-6.5,5.8-6.6h0c0,.1-.1.1-.1.1ZM169,152.3c.1-1.9-.3-3.8-2.6-3.8s-2.8.9-3.2,3.8h5.8Z"/>
                <path class="cls-4" d="M183.2,142.7h3.6l3.2,9.8.9,3.6.9-3.6,3-9.8h3.4l2.1,17.3h-2.6l-1.1-10.7-.3-4.6-1.1,4.6-3.6,10.9h-1.3l-3.8-10.9-1.3-4.6-.3,4.6-.9,10.7h-2.4l1.7-17.3h0Z"/>
                <path class="cls-4" d="M203.9,142.7h1.2c1.1,0,2.3-.1,4-.1,3.9,0,5.6,1.6,5.6,4.1s-.7,3.5-2.6,4c2.1,0,3.8,2,3.8,4.2s-1.6,5.3-7,5.3-2.9,0-3.7-.1h-1.3v-17.3h0ZM209.5,150.1c1.5,0,2.7-1.1,2.7-3.2s-1.3-2.7-3.6-2.7-1.9,0-2.1.1v5.6c.9.1,2.2,0,3.2,0h0c0,.1-.2.2-.2.2ZM209.1,158.2c2.6,0,4.1-.8,4.1-3.2s-1.3-3.1-4-3.1h-2.9v6c.4.3,1.9.3,2.8.3h0Z"/>
                <path class="cls-4" d="M218.9,157c.9.5,2.5,1.1,4.1,1.1s3.4-.7,3.4-2.4-1.4-2.4-3.8-3.6c-2.1-1-4.3-2.7-4.3-5.2s3-4.4,5.7-4.4,3.4.5,4,.9l-.5,2c-.8-.5-1.7-.9-3.6-.9s-3.3.6-3.3,2.1.9,2.3,3.4,3.6c2.2,1.1,4.8,2.6,4.8,5.2s-2.4,4.7-5.8,4.7-4.2-.6-4.8-1l.6-2.1h.1Z"/>
                <path class="cls-4" d="M231.9,142.7h9.9v1.9h-7.4v5.4h5.4v1.9h-5.4v5.9h8.2v1.9h-10.7v-17.3h0v.3Z"/>
                <path class="cls-4" d="M252.9,157c.9.5,2.5,1.1,4.1,1.1s3.4-.7,3.4-2.4-1.4-2.4-3.8-3.6c-2.1-1-4.3-2.7-4.3-5.2s3-4.4,5.7-4.4,3.4.5,4,.9l-.5,2c-.8-.5-1.7-.9-3.6-.9s-3.3.6-3.3,2.1.9,2.3,3.4,3.6c2.2,1.1,4.8,2.6,4.8,5.2s-2.4,4.7-5.8,4.7-4.2-.6-4.8-1l.6-2.1h0Z"/>
                <path class="cls-4" d="M264.8,153.1c0-4.2,2.6-6.4,5.9-6.4s5.7,3.2,5.7,6.9-2.6,6.4-5.9,6.4-5.7-3.2-5.6-6.9h-.1ZM273.8,153.6c0-2.8-1-5-3.2-5s-3.3,1.6-3.3,4.6,1,5,3.2,5.1c2.2,0,3.3-1.7,3.3-4.7h0Z"/>
                <path class="cls-4" d="M279.6,141h2.5v18.8h-2.5v-18.8Z"/>
                <path class="cls-4" d="M286.3,147h2.5v7.5c0,3.2.7,3.5,2.4,3.5s2.3-.5,2.9-.9v-10.1h2.5v13.1h-.9c-.8,0-1.3,0-1.3-1v-.3c-1.1.7-2.8,1.3-4.2,1.3-3.3,0-3.8-2.2-3.8-5.6v-7.5h-.1Z"/>
                <path class="cls-4" d="M301,148.8h-1.7v-1.3c1.1-.3,1.6-.4,1.9-1.1.2-.5.5-1.3.7-2.4h1.5v3h3.6v1.9h-3.6v6.5c0,2.5.2,2.7,1.4,2.7s1.8-.3,2.2-.5l.5,1.4c-.7.5-2.3,1.1-3.6,1.1s-3-.6-3-3.3v-7.9h.1Z"/>
                <path class="cls-4" d="M309.8,143.1c0-1,.9-1.7,1.8-1.7s1.6.7,1.6,1.5-.9,1.7-1.8,1.7-1.6-.6-1.6-1.5h0ZM310.3,147h2.5v12.9h-2.5v-12.9h0Z"/>
                <path class="cls-4" d="M316,153.1c0-4.2,2.6-6.4,5.9-6.4s5.7,3.2,5.7,6.9-2.6,6.4-5.9,6.4-5.7-3.2-5.6-6.9h-.1ZM325.1,153.6c0-2.8-1-5-3.2-5s-3.3,1.6-3.3,4.6,1,5,3.2,5.1c2.2,0,3.3-1.7,3.3-4.7h0Z"/>
                <path class="cls-4" d="M330.7,147h2.2v1.3c.9-.7,2.8-1.5,4.5-1.5,2.8,0,3.8,1.3,3.8,5v8.1h-2.5v-8.1c0-2.1-.4-3.1-2.4-3-.9,0-2.1.5-3.2,1.2v9.9h-2.5v-12.9h.1Z"/>
              </g>
              <g>
                <path class="cls-4" d="M32.1,116.5c0,1.9,1.7,3.4,3.7,3.4h55.3c2,0,3.7-1.5,3.7-3.4v-6.1c0-1.9-1.7-3.4-3.7-3.4h-55.3c-2.1,0-3.7,1.5-3.7,3.4v6.1Z"/>
                <g class="cls-1">
                  <g class="cls-1">
                    <path class="cls-4" d="M134,75.2c7,0,10.1,1.2,13.1,1.7l-1.5,8.1c-1.7-.9-4.5-2.6-11-2.6s-13.8,5.5-13.8,14.8,5.4,15.9,14.6,15.9,9.5-1.7,11.1-2.8v7.6c-2.8,1-6.2,2.4-12.1,2.4-14.8,0-24-9.1-24-22.4s10.5-22.7,23.6-22.7h0Z"/>
                    <path class="cls-4" d="M157.8,101.3c4-1.6,9.9-1.9,14.4-1.9v-2.1c0-3.6-1-4.2-7.1-4.2s-6.9,1.1-9.9,2.4l-2.1-5.8c2.3-1.3,8.8-3.4,14.4-3.4,10,0,14.6,2.5,14.6,12.1v22.1h-5.8c-2.4,0-3.7,0-3.7-3v-.2c-1.9,1.6-5.1,3.2-9.4,3.2-7.1,0-11.8-4.5-11.8-10.7s2.4-6.7,6.3-8.3h0v-.2ZM166.7,114.2c2.2,0,4.9-1,5.6-1.8v-7.9c-2.4,0-5.9.5-7.5,1.2-1.5.5-3.2,1.3-3.2,3.8s2.1,4.7,5,4.7h0Z"/>
                    <path class="cls-4" d="M202.1,123.9v10.7h-9.9v-47.8h9.2v3.4c1.6-1.5,4.7-3.8,10.5-3.8s14.4,5,14.4,15.8-7.4,18.3-18.3,18.3-4.5-.5-6-.9v4.5h.1v-.2ZM207.7,114c4.7,0,8.2-4,8.3-11.1,0-7.6-2.8-9.7-7.1-9.7s-5.3.9-6.8,2.1v17.5c1.3,1.1,3.4,1.3,5.6,1.3h0Z"/>
                    <path class="cls-4" d="M249.5,86.3c7.5,0,14.2,3.4,14.3,13,0,2.5,0,4.8-.3,6.2h-21.4c.4,5.6,4.1,8.1,9.7,8.1s7.4-.7,9.3-1.7l1.6,5.2c-2.4,1.7-7.8,3.3-13.4,3.3-11,0-17-6.4-17-17.1s6.2-16.9,17.3-16.9h-.1ZM254.6,100.5c.3-4.8-1-7.7-5.4-7.7s-6.2,1.9-6.9,7.7h12.4-.1Z"/>
                    <path class="cls-4" d="M272.6,71.6h9.9v48.3h-9.9s0-48.3,0-48.3Z"/>
                    <path class="cls-4" d="M293.8,71.6h9.9v48.3h-9.9s0-48.3,0-48.3Z"/>
                    <path class="cls-4" d="M318.8,101.3c4-1.6,9.9-1.9,14.4-1.9v-2.1c0-3.6-1-4.2-7.1-4.2s-6.9,1.1-9.9,2.4l-2.1-5.8c2.3-1.3,8.8-3.4,14.4-3.4,10,0,14.6,2.5,14.6,12.1v22.1h-5.8c-2.4,0-3.7,0-3.7-3v-.2c-1.9,1.6-5.1,3.2-9.4,3.2-7.1,0-11.8-4.5-11.8-10.7s2.4-6.7,6.3-8.3h0v-.2ZM327.7,114.2c2.2,0,4.9-1,5.6-1.8v-7.9c-2.4,0-5.9.5-7.5,1.2-1.5.5-3.2,1.3-3.2,3.8s2.1,4.7,5,4.7h.1Z"/>
                  </g>
                </g>
                <g>
                  <path class="cls-4" d="M94.8,82.7v-6.2c0-1.9-1.7-3.4-3.7-3.4h-55.3c-2.1,0-3.7,1.5-3.7,3.4v6.1c0,1.9,1.7,3.4,3.7,3.4h27.4l6.1-1.9,4.6-11.1,4.4,11.1,5.8,1.8h7.1c2,0,3.7-1.5,3.7-3.4h0c0,0,0,.2,0,.2Z"/>
                  <path class="cls-4" d="M73.6,103h17.5c2,0,3.7-1.5,3.7-3.4v-6.1c0-1.9-1.7-3.4-3.7-3.4h-6.2l-6.8,2.1-4.6,10.9h0Z"/>
                  <path class="cls-4" d="M62.7,90h-26.9c-2.1,0-3.7,1.5-3.7,3.4v6.1c0,1.9,1.7,3.4,3.7,3.4h37.7l-4.3-10.9-6.4-2h0Z"/>
                  <polygon class="cls-4" points="73.5 103 73.5 103.2 73.6 103 73.5 103"/>
                </g>
                <path id="path3084" class="cls-5" d="M67,88.2l5-1.8,1.7-5,1.8,5,5,1.7-5,1.8-1.7,5-1.8-5-5-1.7h0Z"/>
              </g>
            </g>
          </g>
          <g>
            <path class="cls-4" d="M347.5,83.6v-5.6h-1.9v-.9h5v.9h-1.9v5.6h-1.2Z"/>
            <path class="cls-4" d="M351.3,83.6l.7-6.5h1.6l1.1,3.6.3,1.4.3-1.4,1-3.6h1.5l.8,6.5h-1.1l-.3-3.8v-1.8c-.1,0-.6,1.8-.6,1.8l-1.2,3.9h-.8l-1.3-3.9-.5-1.8v1.8c-.1,0-.5,3.8-.5,3.8h-1.1.1Z"/>
          </g>
        </g>
      </g>
      <g class="cls-1">
        <text class="cls-version" transform="translate(32.1 258.9)"><tspan x="0" y="0">Version 7.1.0</tspan></text>
      </g>
    </g>
  </g>
</svg>