<?xml version="1.0" encoding="UTF-8" standalone="no"?>
<!-- Created with Inkscape (http://www.inkscape.org/) -->

<svg
   xmlns:dc="http://purl.org/dc/elements/1.1/"
   xmlns:cc="http://creativecommons.org/ns#"
   xmlns:rdf="http://www.w3.org/1999/02/22-rdf-syntax-ns#"
   xmlns:svg="http://www.w3.org/2000/svg"
   xmlns="http://www.w3.org/2000/svg"
   xmlns:xlink="http://www.w3.org/1999/xlink"
   xmlns:sodipodi="http://sodipodi.sourceforge.net/DTD/sodipodi-0.dtd"
   xmlns:inkscape="http://www.inkscape.org/namespaces/inkscape"
   width="151.01338mm"
   height="179.33333mm"
   viewBox="0 0 535.08679 635.43305"
   id="svg10472"
   version="1.1"
   inkscape:version="0.91 r13725"
   sodipodi:docname="first_responder_04_operator.svg">
  <title
     id="title7536">First responder - crisis management operator</title>
  <defs
     id="defs10474">
    <linearGradient
       x1="654.28998"
       y1="-254.53"
       gradientTransform="matrix(1.1013,-0.15809,0.69098,0.32964,-40.16,-222.83)"
       x2="653.26001"
       gradientUnits="userSpaceOnUse"
       y2="-204.24001"
       id="linearGradient7500">
      <stop
         offset="0"
         style="stop-color:white"
         id="stop14612" />
      <stop
         offset="1"
         style="stop-color:white;stop-opacity:0"
         id="stop14614" />
    </linearGradient>
    <linearGradient
       x1="379.73999"
       y1="-452.60999"
       gradientTransform="matrix(0.50432,0,0,0.50432,34.099,911.79)"
       x2="411.78"
       gradientUnits="userSpaceOnUse"
       y2="-436.19"
       id="linearGradient7502">
      <stop
         offset="0"
         style="stop-color:#f8f8f8"
         id="stop10162" />
      <stop
         offset="1"
         style="stop-color:#6b6b6b"
         id="stop10164" />
    </linearGradient>
    <linearGradient
       x1="310.45999"
       y1="-332.04999"
       gradientTransform="matrix(0.50432,0,0,0.50432,6.0662,842.39)"
       x2="377.42999"
       gradientUnits="userSpaceOnUse"
       y2="-264.31"
       id="linearGradient7504">
      <stop
         offset="0"
         style="stop-color:#e2e2e2;stop-opacity:.85795"
         id="stop8366" />
      <stop
         offset=".49123"
         style="stop-color:white;stop-opacity:.84659"
         id="stop9255" />
      <stop
         offset="1"
         style="stop-color:white;stop-opacity:.40341"
         id="stop8368" />
    </linearGradient>
    <linearGradient
       x1="310.45999"
       y1="-332.04999"
       gradientTransform="matrix(-0.50432,0,0,-0.50432,414.84,672.86)"
       x2="377.42999"
       gradientUnits="userSpaceOnUse"
       y2="-264.31"
       id="linearGradient7506">
      <stop
         offset="0"
         style="stop-color:black;stop-opacity:.57386"
         id="stop9267" />
      <stop
         offset=".49123"
         style="stop-color:#dfdfdf;stop-opacity:.45455"
         id="stop9269" />
      <stop
         offset="1"
         style="stop-color:white;stop-opacity:.40341"
         id="stop9271" />
    </linearGradient>
    <linearGradient
       x1="106.8"
       y1="732.45001"
       gradientTransform="matrix(1.0022,0,0,0.92383,139.49,18.687)"
       x2="106.65"
       gradientUnits="userSpaceOnUse"
       y2="714.22998"
       id="linearGradient7508">
      <stop
         offset="0"
         style="stop-color:black"
         id="stop7474" />
      <stop
         offset=".65919"
         style="stop-color:white"
         id="stop7480" />
      <stop
         offset=".84436"
         style="stop-color:white"
         id="stop7482" />
      <stop
         offset="1"
         style="stop-color:#c1c1c1"
         id="stop7476" />
    </linearGradient>
    <linearGradient
       x1="160.37"
       y1="640.96002"
       gradientTransform="matrix(0.75903,0,0,0.86443,192.34,124.69)"
       x2="127.79"
       gradientUnits="userSpaceOnUse"
       y2="633.84998"
       id="linearGradient7510">
      <stop
         offset="0"
         style="stop-color:black"
         id="stop2841" />
      <stop
         offset="1"
         style="stop-color:white"
         id="stop2843" />
    </linearGradient>
    <linearGradient
       x1="-270.07999"
       x2="-268.41"
       gradientTransform="matrix(100.55,113.72,113.72,-100.55,-25192,76932)"
       y1="460.09"
       gradientUnits="userSpaceOnUse"
       y2="460.09"
       id="XMLID_31_-0">
      <stop
         offset="0"
         style="stop-color:#FFD8BF"
         id="stop142-9" />
      <stop
         offset=".5393"
         style="stop-color:#BF7400"
         id="stop144-1" />
      <stop
         offset="1"
         style="stop-color:#000000"
         id="stop146-2" />
    </linearGradient>
    <linearGradient
       x1="-268.26999"
       x2="-266.57001"
       gradientTransform="matrix(25.13,103.51,103.51,-25.13,-40422,39142)"
       y1="455.76999"
       gradientUnits="userSpaceOnUse"
       y2="455.76999"
       id="XMLID_32_-6">
      <stop
         offset="0"
         style="stop-color:#FFD8BF"
         id="stop153-68" />
      <stop
         offset=".5393"
         style="stop-color:#BF7400"
         id="stop155-3" />
      <stop
         offset="1"
         style="stop-color:#000000"
         id="stop157-3" />
    </linearGradient>
    <linearGradient
       x1="-270.09"
       x2="-268.39999"
       gradientTransform="matrix(100.55,113.72,113.72,-100.55,-25192,76932)"
       y1="460.10001"
       gradientUnits="userSpaceOnUse"
       y2="460.10001"
       id="XMLID_33_-2">
      <stop
         offset="0"
         style="stop-color:#F3C192"
         id="stop172-3" />
      <stop
         offset=".5393"
         style="stop-color:#D49035"
         id="stop174-0" />
      <stop
         offset="1"
         style="stop-color:#765735"
         id="stop176-2" />
    </linearGradient>
    <linearGradient
       x1="-268.26001"
       x2="-266.57999"
       gradientTransform="matrix(25.13,103.51,103.51,-25.13,-40422,39142)"
       y1="455.76999"
       gradientUnits="userSpaceOnUse"
       y2="455.76999"
       id="XMLID_34_-8">
      <stop
         offset="0"
         style="stop-color:#F3C192"
         id="stop183-2" />
      <stop
         offset=".5393"
         style="stop-color:#D49035"
         id="stop185-6" />
      <stop
         offset="1"
         style="stop-color:#765735"
         id="stop187-1" />
    </linearGradient>
    <radialGradient
       r="1.6849999"
       gradientTransform="matrix(32.319,0,0,-32.319,9620.6,15112)"
       cx="-296.48999"
       cy="466.06"
       gradientUnits="userSpaceOnUse"
       id="XMLID_35_-7">
      <stop
         offset="0"
         style="stop-color:#FFFA5F"
         id="stop192-1" />
      <stop
         offset="1"
         style="stop-color:#9F3300"
         id="stop194-8" />
    </radialGradient>
    <linearGradient
       x1="-265.14999"
       x2="-263.48001"
       gradientTransform="matrix(0,-132.47,-132.47,0,62635,-34991)"
       y1="472.53"
       gradientUnits="userSpaceOnUse"
       y2="472.53"
       id="XMLID_21_-9">
      <stop
         offset="0"
         style="stop-color:#7FB5F7"
         id="stop16-9" />
      <stop
         offset="1"
         style="stop-color:#063DA7"
         id="stop18-4" />
    </linearGradient>
    <linearGradient
       x1="-265.16"
       x2="-263.47"
       gradientTransform="matrix(0,-132.47,-132.47,0,62635,-34991)"
       y1="472.54999"
       gradientUnits="userSpaceOnUse"
       y2="472.54999"
       id="XMLID_22_-9">
      <stop
         offset="0"
         style="stop-color:#7ED8FC"
         id="stop23-3" />
      <stop
         offset="1"
         style="stop-color:#0649AA"
         id="stop25-9" />
    </linearGradient>
    <linearGradient
       x1="-265.16"
       x2="-263.47"
       gradientTransform="matrix(0,-132.47,-132.47,0,62635,-34991)"
       y1="472.53"
       gradientUnits="userSpaceOnUse"
       y2="472.53"
       id="XMLID_23_-18">
      <stop
         offset="0"
         style="stop-color:#5471AF"
         id="stop30-2" />
      <stop
         offset="1"
         style="stop-color:#042676"
         id="stop32-7" />
    </linearGradient>
    <linearGradient
       x1="-265.14999"
       x2="-263.47"
       gradientTransform="matrix(0,-132.47,-132.47,0,62635,-34991)"
       y1="472.53"
       gradientUnits="userSpaceOnUse"
       y2="472.53"
       id="XMLID_24_-9">
      <stop
         offset="0"
         style="stop-color:#68A0F2"
         id="stop37-1" />
      <stop
         offset="1"
         style="stop-color:#0536A3"
         id="stop39-9" />
    </linearGradient>
    <radialGradient
       r="1.6703"
       gradientTransform="matrix(16.729,-0.005,-0.005,-16.729,5488.5,7876.9)"
       cx="-325.75"
       cy="466.57001"
       gradientUnits="userSpaceOnUse"
       id="XMLID_29_-4">
      <stop
         offset="0"
         style="stop-color:#B9DAF4"
         id="stop94-7" />
      <stop
         offset="1"
         style="stop-color:#7A97CB"
         id="stop96-0" />
    </radialGradient>
    <linearGradient
       x1="-257.44"
       x2="-255.81"
       gradientTransform="matrix(-0.9918,-12.804,-12.804,0.9918,6744.6,-3744.8)"
       y1="543.15002"
       gradientUnits="userSpaceOnUse"
       y2="543.15002"
       id="XMLID_30_-5">
      <stop
         offset="0"
         style="stop-color:#FFFFFF"
         id="stop111-9" />
      <stop
         offset=".4625"
         style="stop-color:#FDFEFF"
         id="stop113-8" />
      <stop
         offset=".6291"
         style="stop-color:#F6FAFF"
         id="stop115-8" />
      <stop
         offset=".7478"
         style="stop-color:#EBF4FF"
         id="stop117-19" />
      <stop
         offset=".8438"
         style="stop-color:#DAEAFF"
         id="stop119-64" />
      <stop
         offset=".9251"
         style="stop-color:#C4DEFF"
         id="stop121-2" />
      <stop
         offset=".9967"
         style="stop-color:#A9D0FF"
         id="stop123-0" />
      <stop
         offset="1"
         style="stop-color:#A8CFFF"
         id="stop125-2" />
    </linearGradient>
    <linearGradient
       inkscape:collect="always"
       xlink:href="#XMLID_31_-0"
       id="linearGradient10766"
       gradientUnits="userSpaceOnUse"
       gradientTransform="matrix(100.55,113.72,113.72,-100.55,-25192,76932)"
       x1="-270.07999"
       y1="460.09"
       x2="-268.41"
       y2="460.09" />
    <linearGradient
       inkscape:collect="always"
       xlink:href="#XMLID_32_-6"
       id="linearGradient10768"
       gradientUnits="userSpaceOnUse"
       gradientTransform="matrix(25.13,103.51,103.51,-25.13,-40422,39142)"
       x1="-268.26999"
       y1="455.76999"
       x2="-266.57001"
       y2="455.76999" />
    <linearGradient
       inkscape:collect="always"
       xlink:href="#XMLID_33_-2"
       id="linearGradient10770"
       gradientUnits="userSpaceOnUse"
       gradientTransform="matrix(100.55,113.72,113.72,-100.55,-25192,76932)"
       x1="-270.09"
       y1="460.10001"
       x2="-268.39999"
       y2="460.10001" />
    <linearGradient
       inkscape:collect="always"
       xlink:href="#XMLID_34_-8"
       id="linearGradient10772"
       gradientUnits="userSpaceOnUse"
       gradientTransform="matrix(25.13,103.51,103.51,-25.13,-40422,39142)"
       x1="-268.26001"
       y1="455.76999"
       x2="-266.57999"
       y2="455.76999" />
    <radialGradient
       inkscape:collect="always"
       xlink:href="#XMLID_35_-7-3"
       id="radialGradient10774"
       gradientUnits="userSpaceOnUse"
       gradientTransform="matrix(32.319,0,0,-32.319,9620.6,15112)"
       cx="-296.48999"
       cy="466.06"
       r="1.6849999" />
    <radialGradient
       r="1.6849999"
       gradientTransform="matrix(32.319,0,0,-32.319,9620.6,15112)"
       cx="-296.48999"
       cy="466.06"
       gradientUnits="userSpaceOnUse"
       id="XMLID_35_-7-3">
      <stop
         offset="0"
         style="stop-color:#FFFA5F"
         id="stop192-1-3" />
      <stop
         offset="1"
         style="stop-color:#9F3300"
         id="stop194-8-7" />
    </radialGradient>
    <linearGradient
       x1="-346.29001"
       x2="-344.60001"
       gradientTransform="matrix(11.5,4.0001,4.0001,-11.5,2213.4,6484.9)"
       y1="440.47"
       gradientUnits="userSpaceOnUse"
       y2="440.47"
       id="XMLID_36_-0">
      <stop
         offset="0"
         style="stop-color:#FFFFFF"
         id="stop201-7" />
      <stop
         offset="1"
         style="stop-color:#818181"
         id="stop203-7" />
    </linearGradient>
  </defs>
  <sodipodi:namedview
     id="base"
     pagecolor="#ffffff"
     bordercolor="#666666"
     borderopacity="1.0"
     inkscape:pageopacity="0.0"
     inkscape:pageshadow="2"
     inkscape:zoom="0.7"
     inkscape:cx="191.60214"
     inkscape:cy="184.43044"
     inkscape:document-units="px"
     inkscape:current-layer="layer1"
     showgrid="false"
     fit-margin-top="5"
     fit-margin-left="5"
     fit-margin-right="5"
     fit-margin-bottom="5"
     inkscape:window-width="1920"
     inkscape:window-height="1125"
     inkscape:window-x="0"
     inkscape:window-y="0"
     inkscape:window-maximized="1" />
  <metadata
     id="metadata10477">
    <rdf:RDF>
      <cc:Work
         rdf:about="">
        <dc:format>image/svg+xml</dc:format>
        <dc:type
           rdf:resource="http://purl.org/dc/dcmitype/StillImage" />
        <dc:title>First responder - crisis management operator</dc:title>
        <dc:creator>
          <cc:Agent>
            <dc:title>Jan Helebrant</dc:title>
          </cc:Agent>
        </dc:creator>
        <dc:rights>
          <cc:Agent>
            <dc:title>Jan Helebrant</dc:title>
          </cc:Agent>
        </dc:rights>
        <dc:publisher>
          <cc:Agent>
            <dc:title>Jan Helebrant</dc:title>
          </cc:Agent>
        </dc:publisher>
        <cc:license
           rdf:resource="http://creativecommons.org/publicdomain/zero/1.0/" />
        <dc:subject>
          <rdf:Bag>
            <rdf:li>emergency</rdf:li>
            <rdf:li>disaster</rdf:li>
            <rdf:li>crisis management</rdf:li>
          </rdf:Bag>
        </dc:subject>
      </cc:Work>
      <cc:License
         rdf:about="http://creativecommons.org/publicdomain/zero/1.0/">
        <cc:permits
           rdf:resource="http://creativecommons.org/ns#Reproduction" />
        <cc:permits
           rdf:resource="http://creativecommons.org/ns#Distribution" />
        <cc:permits
           rdf:resource="http://creativecommons.org/ns#DerivativeWorks" />
      </cc:License>
    </rdf:RDF>
  </metadata>
  <g
     inkscape:label="Vrstva 1"
     inkscape:groupmode="layer"
     id="layer1"
     transform="translate(-36.849978,-49.215499)">
    <g
       id="g9530"
       transform="matrix(4.4040663,0,0,4.4040663,123.12642,64.051267)">
      <path
         d="m 81.112,104.35 c 0,22.97 -22.022,31.07 -41.758,30.56 C 17.436,134.35 -1.738,122.96 1.154,98.777 3.643,77.953 20.035,54.076 43.333,55.457 67.091,56.864 81.112,82.889 81.112,104.35"
         style="fill:#5691ff"
         id="path5"
         inkscape:connector-curvature="0" />
      <path
         d="m 41.482,56.278 c -22.668,0 -37.951,23.9 -39.639,44.332 -1.95,23.64 18.663,33.43 39.471,33.43 -18.877,0 -39.17,-8.46 -38.221,-30.27 0.909,-20.892 17.266,-37.366 38.374,-37.366 20.104,0 35.56,14.75 37.217,34.666 1.901,22.88 -16.798,32.97 -37.339,32.97 20.093,0 39.72,-9.34 38.831,-32.01 C 79.358,81.132 64.813,56.278 41.482,56.278"
         style="fill:#55b4ff"
         id="path7"
         inkscape:connector-curvature="0" />
      <path
         d="m 12.218,70.282 c -12.674,15.872 -19.631,44.858 0.201,58.088 16.13,10.76 45.612,10.98 60.429,-2.43 C 88.482,111.79 81.909,84.782 70.481,70.134 54.775,50.006 28.09,50.451 12.218,70.282 M 1.533,105.06 c 0,-22.32 16.523,-50.331 41.712,-48.867 22.688,1.318 36.308,25.442 37.084,45.987 0.823,21.82 -17.098,31.45 -36.808,31.97 -18.83,0.49 -41.988,-6.56 -41.988,-29.09"
         style="fill:#2b4ddd"
         id="path9"
         inkscape:connector-curvature="0" />
      <path
         d="m 41.418,123.23 c -13.387,0 -29.547,-2.01 -39.309,-12.25 3.43,17.07 21.658,22.75 36.991,23.17 16.438,0.45 36.641,-4.41 40.572,-22.94 -9.476,10.07 -25.179,12.02 -38.254,12.02"
         style="fill:#3f7cff"
         id="path11"
         inkscape:connector-curvature="0" />
      <path
         d="m 41.482,55.841 c 21.281,0 35.308,21.513 37.542,40.673 C 81.608,118.67 66.144,130.71 45.269,131.85 26.531,132.86 2.519,126 2.519,103.37 2.519,82.641 16.773,57.475 39.481,55.9 16.736,57.439 2.11,82.076 1.273,102.88 0.319,126.56 23.129,134.99 43.327,134.47 64.283,133.93 82.255,123.05 80.515,100.1 78.957,79.569 64.324,55.841 41.482,55.841"
         style="fill:#3f7cff"
         id="path13"
         inkscape:connector-curvature="0" />
      <path
         d="m 49.752,76.09 c -2.299,2.819 -5.076,5.638 -8.507,3.118 -2.287,2.174 -3.334,2.181 -1.469,5.102 1.594,2.489 1.637,4.199 4.82,3.992 3.443,-0.227 9.239,-0.483 10.478,-4.068 0.915,-2.647 2.06,-3.489 -0.508,-5.266 -1.536,-1.066 -3.151,-2.023 -4.814,-2.878 m 16.045,-0.73 c -0.61,0.342 -1.219,0.684 -1.826,1.029 1.439,0.507 1.087,0.721 1.826,-1.029 M 19.774,72.824 c -3.827,2.556 -1.375,4.233 1.615,6.967 1.527,1.394 2.867,3.555 4.673,1.992 1.213,-1.049 2.717,-2.006 3.705,-3.285 -3.602,-1.118 -10.258,-0.125 -9.993,-5.674 m 2.94,-10.455 c -1.279,0.895 -7.699,5.157 -7.49,6.825 2.273,-2.536 4.861,-4.68 7.49,-6.825 m 36.175,-0.94 c -0.75,0.474 0.945,0.868 1.442,0.97 -0.48,-0.322 -0.962,-0.648 -1.442,-0.97"
         style="fill:url(#XMLID_21_-9)"
         id="path20"
         inkscape:connector-curvature="0" />
      <path
         d="m 58.891,64.208 c -0.528,0.372 -1.056,0.743 -1.586,1.118 0.486,0.312 0.975,0.625 1.461,0.937 0.042,-0.684 0.083,-1.371 0.125,-2.055 M 21.547,63.362 c -4.602,3.463 -7.734,5.766 -4.384,11.377 3.241,-2.602 3.532,-6.075 6.209,-9.41 -0.628,-0.414 -2.716,-1.184 -1.825,-1.967 M 58.75,61.514 c -0.289,0.174 -0.581,0.349 -0.869,0.52 2.346,1.842 0.385,0.365 2.143,0.333 C 59.6,62.083 59.175,61.801 58.75,61.514"
         style="fill:url(#XMLID_22_-9)"
         id="path27"
         inkscape:connector-curvature="0" />
      <path
         d="m 23.914,61.386 c -2.872,1.901 -5.479,4.183 -7.803,6.719 0.692,-0.73 7.14,-7.16 7.803,-6.719 m 35.074,-0.02 c -0.668,0.435 0.972,0.898 1.529,1.082 -0.508,-0.358 -1.019,-0.72 -1.529,-1.082 M 22.687,60.574 c -2.604,1.729 -7.667,4.63 -7.505,8.051 2.541,-2.79 5.414,-5.286 8.589,-7.328 -0.363,-0.243 -0.723,-0.483 -1.084,-0.723 m 37.54,-0.03 c -0.358,0.239 -0.715,0.477 -1.073,0.717 2.943,1.917 5.533,4.167 7.906,6.761 -0.204,-3.446 -4.13,-5.679 -6.833,-7.478"
         style="fill:url(#XMLID_23_-18)"
         id="path34"
         inkscape:connector-curvature="0" />
      <path
         d="m 65.606,66.503 c 0.487,0.592 0.978,1.187 1.467,1.779 0.017,-0.812 -0.474,-1.404 -1.467,-1.779 M 23.771,61.297 c -1.819,1.171 -8.77,5.476 -8.554,7.814 0.91,-1.055 7.807,-8.304 8.554,-7.814 m 35.382,-0.036 c -0.723,0.46 2.187,1.568 2.52,1.789 -0.816,-0.632 -1.657,-1.226 -2.52,-1.789"
         style="fill:url(#XMLID_24_-9)"
         id="path41"
         inkscape:connector-curvature="0" />
      <path
         d="M 57.242,59.462 C 47.189,52.391 34.1,53.545 23.841,59.857 c 2.919,4.551 6.257,8.847 10.004,12.748 2.182,2.269 6.107,7.137 9.39,7.791 7.419,1.483 13.308,-16.05 14.007,-20.934"
         style="fill:#f4f4f4"
         id="path43"
         inkscape:connector-curvature="0" />
      <path
         d="m 26.949,63.083 c 0.338,2.302 1.538,2.453 3.002,1.286 -1.022,-0.378 -2.022,-0.806 -3.002,-1.286 m 29.603,-0.322 c -0.62,0.296 -1.239,0.592 -1.859,0.888 0.443,0.283 0.888,0.569 1.332,0.855 0.174,-0.582 0.351,-1.161 0.527,-1.743 M 25.479,62.317 c 0.365,0.53 0.622,0.342 0,0"
         style="fill:url(#XMLID_29_-4)"
         id="path98"
         inkscape:connector-curvature="0" />
      <path
         d="m 33.73,74.689 c 0,-2.667 19.451,0.125 21.361,0.539 2.826,0.618 4.326,0.971 3.703,4.046 -0.863,4.262 -2.514,8.442 -4.229,12.421 -1.072,2.486 -2.679,7.614 -5.361,8.915 -1.754,0.85 -4.552,-4.481 -5.178,-5.478 -2.52,-4.006 -4.752,-8.202 -6.856,-12.438 -1.057,-2.131 -3.44,-5.518 -3.44,-8.005"
         style="fill:#d6dbff"
         id="path100"
         inkscape:connector-curvature="0" />
      <path
         d="m 50.306,80.083 c 1.025,2.654 4.164,8.347 3.134,11.172 -1.019,2.792 -3.354,11.485 -6.845,7.531 -4.051,-4.591 -4.409,-7.113 -2.89,-12.747 1.473,-5.453 1.021,-5.538 6.601,-5.956"
         style="fill:#5691ff"
         id="path102"
         inkscape:connector-curvature="0" />
      <path
         d="m 50.231,79.109 c -5.378,0.408 -5.572,-0.197 -6.993,4.937 -1.854,6.69 -2.21,10.018 2.751,15.526 4.294,4.778 7.005,-4.37 8.248,-7.665 0.947,-2.513 -1.686,-12.225 -4.006,-12.798 m -0.58,2 c 2.556,6.686 4.179,12.175 -1.239,18.091 -2.041,-1.473 -5.481,-5.659 -4.911,-8.353 0.456,-2.147 1.063,-4.266 1.648,-6.381 0.926,-3.347 1.171,-3.107 4.502,-3.357"
         style="fill:#2b4ddd"
         id="path104"
         inkscape:connector-curvature="0" />
      <path
         d="m 42.163,76.226 c 0.972,-0.757 3.157,-3.26 4.333,-3.371 0.666,-0.063 4.449,1.736 4.519,2.338 0.805,6.936 -6.652,6.39 -8.852,1.033"
         style="fill:#5691ff"
         id="path106"
         inkscape:connector-curvature="0" />
      <path
         d="m 45.896,72.081 c -0.843,0.658 -5.12,3.253 -4.773,4.154 1.115,2.9 3.563,5.877 7.026,5.354 7.033,-1.066 3.919,-10.754 -2.253,-9.508 m 0.732,1.908 c 1.149,0.525 2.297,1.055 3.447,1.578 0.111,1.628 -0.157,3.786 -2.219,4.088 -1.651,0.254 -2.975,-0.854 -3.853,-2.102 -1.198,-1.702 1.29,-2.519 2.625,-3.564"
         style="fill:#2b4ddd"
         id="path108"
         inkscape:connector-curvature="0" />
      <path
         d="m 53.317,64.211 c -3.777,1.454 -7.819,2.194 -11.866,2.194 -4.659,0 -8.498,-2.01 -12.785,-0.148 2.869,5.048 5.976,9.966 9.083,14.869 1.629,-1.888 6.117,-7.502 8.946,-7.766 2.743,-0.256 8.024,4.145 9.965,5.621 0.758,-2.927 1.33,-5.9 1.716,-8.896 0.468,-3.641 -2.208,-4.042 -5.059,-5.874"
         style="fill:url(#XMLID_30_-5)"
         id="path127"
         inkscape:connector-curvature="0" />
      <path
         d="m 45.104,57.795 c -7.28,3.157 -14.559,6.314 -21.838,9.472 4.505,5.992 8.49,12.169 12.502,18.506 2.708,-4.196 8.405,-12.517 13.745,-9.804 1.9,0.964 9.105,7.367 10.564,6.923 2.576,-0.793 3.386,-7.814 3.84,-9.926 1.025,-4.785 -3.376,-5.561 -7.259,-8.054 -3.342,-2.148 -7.805,-6.243 -11.554,-7.117 m 0.182,1.259 c 4.099,2.657 8.222,5.282 12.333,7.919 1.782,1.145 3.563,2.289 5.348,3.431 0.781,0.503 -1.822,10.323 -3.192,11.261 C 57.482,79.408 50.409,72.956 46.696,73.36 43.047,73.755 37.676,80.984 35.815,83.572 32.41,78.159 29,72.887 25.175,67.767 c 6.71,-2.885 13.401,-5.822 20.111,-8.713"
         style="fill:#6e92f9"
         id="path129"
         inkscape:connector-curvature="0" />
      <path
         d="m 26.16,63.675 c 6.3,12.491 14.626,24.167 22.325,35.825 5.254,-7.044 8.396,-15.868 10.073,-24.409 0.752,-3.822 1.194,-7.703 1.338,-11.597 0.021,-0.556 3.85,2.529 4.052,2.727 1.376,1.342 3.988,3.792 3.633,5.985 -0.356,2.184 -5.213,2.658 -5.213,4.306 0,2.016 7.429,0.881 5.748,4.479 -1.812,3.873 -4.862,7.383 -7.648,10.573 -3.149,3.611 -9.471,12.146 -14.171,9.426 C 40.38,97.556 34.547,93.797 29.341,89.34 28.4,88.538 24.138,85.548 25.316,83.907 c 0.881,-1.227 8.026,-5.601 4.31,-6.47 -2.94,-0.687 -9.074,-0.059 -8.876,-4.505 0.154,-3.511 3.064,-6.863 5.41,-9.257"
         style="fill:#5691ff"
         id="path131"
         inkscape:connector-curvature="0" />
      <path
         d="m 25.479,62.978 c -2.604,2.552 -5.714,6.318 -5.714,10.156 0,5.271 6.525,4.285 10.002,5.364 -4.31,5.584 -7.897,5.598 -1.545,11.182 2.894,2.546 6.039,4.809 9.235,6.952 2.125,1.428 8.785,7.158 11.255,6.858 2.019,-0.25 5.28,-3.983 6.715,-5.313 3.395,-3.138 6.506,-6.597 9.314,-10.268 4.098,-5.354 6.995,-8.791 -0.771,-11.521 5.012,-2.99 5.754,-5.466 1.575,-9.949 -1.213,-1.302 -3.464,-3.907 -5.397,-4.068 -2.053,-0.17 -1.658,6.894 -1.846,8.275 -1.295,9.479 -4.398,19.144 -9.789,27.126 -7.632,-11.58 -16.056,-23.216 -22.081,-35.736 -0.317,0.317 -0.636,0.63 -0.953,0.942 M 28.556,82.24 C 33.848,77.902 31.37,76.719 25.795,75.85 18.924,74.785 22.75,68.91 25.933,65.342 32.55,77.666 40.547,89.383 48.301,101.02 42.272,97.592 36.362,93.836 30.988,89.439 27.697,86.746 24.651,85.44 28.556,82.24 m 20.684,17.87 c 7.674,-9.51 10.909,-23.438 11.549,-35.298 2.443,1.75 8.326,6.289 4.105,8.817 -8.143,4.878 1.146,2.842 2.563,6.443 -0.484,3.229 -4.614,7.163 -6.588,9.508 -3.466,4.118 -7.692,9.055 -12.402,11.53 0.259,-0.34 0.516,-0.67 0.773,-1"
         style="fill:#2b4ddd"
         id="path133"
         inkscape:connector-curvature="0" />
      <path
         d="m 72.611,35.625 c 0,16.819 -14.704,29.945 -31.16,29.945 -16.456,0 -31.159,-13.125 -31.159,-29.945 0,-16.824 14.695,-29.961 31.159,-29.961 16.466,0 31.16,13.135 31.16,29.961"
         style="fill:#fcd095"
         id="path135"
         inkscape:connector-curvature="0" />
      <path
         d="M 20.552,24.38 C 27.657,16.062 40.05,14.005 50.235,16.816 61.402,19.898 67.073,28.925 68.761,39.913 71.243,23.574 57.601,9.406 41.45,9.406 25.281,9.406 11.665,23.585 14.141,39.927 14.984,34.451 16.912,28.655 20.552,24.38"
         style="fill:#ffe2ae"
         id="path137"
         inkscape:connector-curvature="0" />
      <path
         d="M 71.489,32.017 C 69.76,45.32 62.459,55.493 48.56,57.92 31.55,60.893 13.708,50.01 11.414,32.021 8.908,50.48 25.441,65.816 43.439,64.688 60.072,63.646 73.652,48.892 71.489,32.017"
         style="fill:#fabb78"
         id="path139"
         inkscape:connector-curvature="0" />
      <path
         d="m 11.379,32.092 c -0.813,1.694 -0.388,4.029 -0.133,5.782 -0.153,-1.924 -0.108,-3.868 0.133,-5.782 M 71.03,29.317 C 74.932,46.228 62.204,62.392 45.394,64.504 36.197,65.662 26.74,62.655 20.037,56.219 13.995,50.414 12.323,42.804 9.429,35.492 c 0,17.46 15.024,30.912 32.021,30.912 19.038,0 35.268,-17.132 31.47,-36.502 0.16,0.365 0.134,0.678 -0.081,0.944 -0.705,-0.381 -1.307,-0.891 -1.809,-1.529 m 1.146,-1.737 c 0.034,0.744 0.034,0.744 0,0 m -0.031,-0.519 c 0.034,0.558 0.034,0.558 0,0 M 72.12,26.758 c 0.023,0.283 0.008,0.075 0,0"
         style="fill:url(#linearGradient10766)"
         id="path148"
         inkscape:connector-curvature="0" />
      <path
         d="m 63.622,9.999 c 5.319,5.408 8.267,10.125 8.579,18.137 -0.016,-0.474 -6,-5.621 -6.912,-6.364 -2.241,-1.828 -4.825,2.076 -7.013,3.194 -5.531,2.829 -13.938,4.986 -20.032,2.97 -3.257,-1.076 -7.037,-3.259 -10.565,-2.187 -2.042,0.622 -3.348,2.404 -4.157,4.288 C 22.7,31.948 22.581,39.614 21.34,40.424 20.868,40.729 16.864,31.646 16.331,30.837 9.84,21.009 9.998,38.181 10.771,37.986 6.598,39.025 9.858,21.381 10.475,19.996 13.406,13.415 18.745,8.337 25.2,5.249 36.876,-0.337 54.107,0.256 63.622,9.999"
         style="fill:#c48e53"
         id="path150"
         inkscape:connector-curvature="0" />
      <path
         d="m 8.384,30.29 c 0.077,1.786 1.136,3.766 1.136,5.424 -0.226,-0.53 1.01,2.457 1.264,2.265 0.409,-2.72 -1.855,-5.035 -2.4,-7.689 M 63.417,18.233 c -0.721,0 -3.177,2.711 -3.924,3.174 -2.185,1.352 -4.615,2.295 -7.086,2.98 -6.548,1.815 -11.752,1.105 -18.231,0.036 -3.759,-0.618 -7.025,-2.871 -9.781,0.793 -1.062,1.411 -3.777,12.553 -3.482,12.553 -1.411,0 -4.004,-8.16 -4.756,-9.373 -0.889,-1.438 -3.605,-3.591 -5.321,-2.227 -1.774,1.408 -0.872,5.2 -0.59,7.035 -0.751,-3.993 1.699,-5.624 5.019,-3.552 1.301,1.246 4.823,10.945 6.019,10.797 0.411,-0.095 1.97,-10.09 2.811,-11.573 1.166,-2.063 3.036,-3.384 5.443,-3.384 4.122,0.141 7.688,3.068 11.764,3.068 5.175,0 10.479,-0.783 15.271,-2.802 1.598,-0.674 5.926,-4.838 7.173,-4.838 3.266,-0.635 5.41,7.404 8.341,7.404 0.459,0 -0.302,-4.381 -0.354,-4.673 0.413,0.763 0.419,1.427 0.021,1.993 -3.103,-10e-4 -4.854,-7.411 -8.337,-7.411"
         style="fill:url(#linearGradient10768)"
         id="path159"
         inkscape:connector-curvature="0" />
      <path
         d="m 59.351,18.681 c 0,9.547 -35.024,8.686 -35.024,0.637 6.436,1.407 13.557,2.576 20.138,1.896 1.709,-0.179 14.886,-4.899 14.886,-2.533"
         style="fill:#d8ac77"
         id="path161"
         inkscape:connector-curvature="0" />
      <path
         d="m 71.406,21.989 c 0.609,2.588 0.999,5.299 1.515,7.914 -0.166,-2.684 -0.604,-5.375 -1.515,-7.914"
         style="fill:#f3d4b2"
         id="path163"
         inkscape:connector-curvature="0" />
      <path
         d="m 12.264,28.514 c -0.528,0 -0.836,3.203 -0.885,3.578 -0.09,0.191 0.035,-0.089 0.035,-0.072 0.582,-1.128 1.774,-1.125 2.83,-0.741 0.385,-2.068 0.415,-2.765 -1.98,-2.765 m 49.072,-5.466 c -3.649,2.822 -8.339,4.23 -12.832,4.95 -6.579,1.059 -10.14,-0.625 -16.375,-2.154 -8.283,-2.032 -10.009,7.094 -10.484,13.461 0.149,0.612 0.017,0.993 -0.398,1.147 -2.193,-2.625 -2.904,-6.314 -4.689,-9.258 -0.333,0.809 4.18,11.774 5.446,11.774 2.313,0 0.169,-16.826 10.332,-14.734 6.244,1.282 10.115,3.344 16.749,2.308 4.873,-0.763 10.139,-2.325 13.884,-5.695 -0.51,-0.631 -1.053,-1.23 -1.633,-1.799 m 3.021,-1.924 c 2.12,3.006 4.094,5.522 6.673,8.193 -0.732,-3.177 -3.751,-6.601 -6.673,-8.193"
         style="fill:#f2bd7e"
         id="path165"
         inkscape:connector-curvature="0" />
      <path
         d="m 14.691,29.317 c -0.822,3.042 -0.695,1.279 1.447,2.943 0.562,-1.506 -0.133,-2.217 -1.447,-2.943 M 63.744,20.92 c -0.658,0 -1.923,1.753 -2.408,2.128 0.58,0.569 1.123,1.168 1.631,1.8 1.647,-1.48 1.63,-1.839 3.483,-0.201 -0.425,-0.862 -1.468,-3.727 -2.706,-3.727"
         style="fill:#f3c58a"
         id="path167"
         inkscape:connector-curvature="0" />
      <path
         d="m 11.247,37.874 c 0.108,0.862 0.215,1.724 0.324,2.585 -0.04,-0.868 -0.149,-1.73 -0.324,-2.585 m 0.167,-5.857 0,0"
         style="fill:#f1b26f"
         id="path169"
         inkscape:connector-curvature="0" />
      <path
         d="m 12.067,28.524 c -2.128,0.194 -1.916,3.371 -1.805,4.795 -0.003,-0.02 0.757,4.505 0.521,4.66 -0.395,-0.733 -0.927,-1.43 -1.261,-2.252 0.125,0.569 1.113,4.792 1.998,4.792 -1.466,0 0.244,-10.834 0.547,-11.995 m 60.056,-1.766 c 0.033,0.46 0.059,0.917 0.078,1.377 0.019,0.119 -0.021,0.181 -0.116,0.188 -0.678,-0.362 -1.259,-0.849 -1.74,-1.464 0.28,0.849 0.776,3.986 2.495,3.986 0.512,0.001 -0.644,-3.85 -0.717,-4.087"
         style="fill:url(#linearGradient10770)"
         id="path178"
         inkscape:connector-curvature="0" />
      <path
         d="m 21.384,40.387 c -0.04,0.043 -0.085,0.066 -0.138,0.066 0.046,-0.023 0.092,-0.047 0.138,-0.066 M 10.689,37.946 c 0.025,0.014 0.049,0.027 0.074,0.04 -0.025,-0.013 -0.049,-0.026 -0.074,-0.04 M 10.02,36.822 c 0.066,0.125 0.132,0.253 0.197,0.378 -0.066,-0.125 -0.132,-0.253 -0.197,-0.378 M 9.829,36.431 c 0.107,0.216 0.107,0.216 0,0 M 9.643,36.016 c 0.14,0.313 0.14,0.313 0,0 M 9.521,35.717 c 0,0.013 0.196,0.496 0,0 m 2.743,-7.203 c -0.367,0.118 -0.731,0.237 -1.099,0.355 1.608,-0.753 4.512,1.042 4.098,0.783 -0.904,-0.648 -1.904,-1.029 -2.999,-1.138 m 59.895,-0.213 c -0.025,0.006 -0.05,0.016 -0.074,0.023 0.024,-0.007 0.049,-0.017 0.074,-0.023 m 0.011,-0.82 c 0.007,0.132 0.007,0.132 0,0 m -0.037,-0.588 c 0.014,0.224 0.014,0.224 0,0 m -42.41,-1.401 c 1.674,0.118 3.292,0.486 4.853,1.108 -1.559,-0.556 -3.184,-1.062 -4.853,-1.108 m -0.187,0 c -0.239,0 -0.239,0 0,0 M 68.23,24.62 c 0.422,0.451 0.847,0.901 1.27,1.352 -0.423,-0.451 -0.845,-0.901 -1.27,-1.352 m 3.153,-2.696 c 0.362,1.542 0.604,3.101 0.727,4.68 -0.073,-0.915 -0.376,-3.763 -0.727,-4.68 M 63.744,20.92 c -0.313,0.089 -0.313,0.089 0,0"
         style="fill:#d69c5d"
         id="path180"
         inkscape:connector-curvature="0" />
      <path
         d="m 10.784,37.979 c -0.028,0.01 -0.028,0.01 0,0 M 9.52,35.714 c 0,0.522 0.903,1.986 1.169,2.232 C 10.208,37.252 9.817,36.51 9.52,35.714 m 0.955,-0.484 c 0,-0.994 0.416,2.67 0.309,2.749 0.02,-0.927 -0.084,-1.845 -0.309,-2.749 m 5.202,-5.232 c 1.042,1.348 4.165,10.455 5.569,10.455 -2.731,-2.806 -2.779,-7.591 -5.569,-10.455 M 15.264,29.652 M 11.166,28.87 c -1.133,0.904 -1.116,3.223 -0.903,4.45 -0.102,-1.29 -0.288,-3.49 0.903,-4.45 m 61.035,-0.734 c -0.056,0.217 -0.056,0.217 0,0 M 69.5,25.972 c 0.464,0.572 1.776,2.352 2.585,2.352 C 71.09,27.695 70.228,26.91 69.5,25.972 m -40.144,-0.48 c -2.335,0.055 -4.134,1.387 -5.264,3.384 -0.841,1.482 -2.399,11.478 -2.811,11.573 0.375,-0.197 0.495,-0.579 0.362,-1.144 0.335,-4.752 1.261,-13.662 7.713,-13.813 m 0.18,0 c 0.381,-0.004 0.761,0.023 1.139,0.075 -0.38,-0.026 -0.759,-0.052 -1.139,-0.075 m 33.973,-4.506 c -4.37,2.914 -7.434,5.437 -12.866,6.61 -7.437,1.608 -11.796,-0.243 -18.807,-1.822 6.264,1.415 9.976,3.289 16.602,2.233 6.354,-1.009 10.007,-3.647 15.071,-7.021 m 0.236,-0.066 c -10e-4,0 -10e-4,0 0,0 1.894,0.753 3.253,2.438 4.649,3.875 -0.898,-0.924 -3.058,-3.875 -4.649,-3.875"
         style="fill:url(#linearGradient10772)"
         id="path189"
         inkscape:connector-curvature="0" />
      <path
         d="M 9.21,32.921 C 9.21,14.215 27.629,1.646 45.221,3.673 64.414,5.886 79.25,25.432 70.753,44.235 82.32,23.429 62.909,0 41.124,0 19.337,0 0.132,23.502 11.663,44.238 10.059,40.689 9.21,36.819 9.21,32.921"
         style="fill:url(#radialGradient10774)"
         id="path196"
         inkscape:connector-curvature="0" />
      <path
         d="m 20.649,40.825 c 0,4.933 -2.434,12.908 -8.607,12.908 -6.172,0 -8.607,-7.976 -8.607,-12.908 0,-4.937 2.434,-12.912 8.607,-12.912 6.173,0 8.607,7.975 8.607,12.912"
         style="fill:#ffffff"
         id="path198"
         inkscape:connector-curvature="0" />
      <path
         d="m 2.936,40.956 c 0.29,5.288 3.246,14.026 9.878,13.928 6.645,-0.099 8.619,-9.058 8.337,-14.191 -0.29,-5.292 -3.246,-14.027 -9.879,-13.932 -6.648,0.095 -8.62,9.061 -8.336,14.195 m 1.486,-0.023 c -0.235,-4.289 1.186,-12.514 6.937,-12.6 5.737,-0.082 8.063,7.942 8.306,12.379 C 19.9,45.004 18.477,53.226 12.727,53.311 6.991,53.394 4.664,45.373 4.422,40.933"
         style="fill:url(#XMLID_36_-0)"
         id="path205"
         inkscape:connector-curvature="0" />
      <path
         d="m 11.659,40.825 c 0,10.244 -11.092,10.244 -11.092,0 0,-10.249 11.092,-10.249 11.092,0"
         style="fill:#5e5d5d"
         id="path207"
         inkscape:connector-curvature="0" />
      <path
         d="M 0.245,40.91 C 0.841,51.803 12.601,52.082 11.981,40.739 11.386,29.846 -0.375,29.563 0.245,40.91 m 0.957,-0.017 c -0.549,-10.014 9.292,-9.761 9.82,-0.141 0.55,10.014 -9.292,9.761 -9.82,0.141"
         style="fill:#383838"
         id="path209"
         inkscape:connector-curvature="0" />
      <path
         d="M 46.57,61.797 C 45.661,66.306 28.541,62.346 26.083,60.297 21.874,56.781 17.666,53.269 13.456,49.753 11.703,48.29 6.373,45.205 6.183,42.485 c -0.292,-4.154 5.941,1.417 6.683,2.069 4.295,3.759 8.608,7.501 12.974,11.182 3.677,3.098 7.896,3.279 12.552,2.829 2.99,-0.287 9.278,-2.313 8.178,3.232"
         style="fill:#383838"
         id="path211"
         inkscape:connector-curvature="0" />
    </g>
  </g>
</svg>
