<?xml version="1.0" encoding="UTF-8" standalone="no"?>
<!-- Created with Inkscape (http://www.inkscape.org/) -->

<svg
   width="4.2490797mm"
   height="4.2489786mm"
   viewBox="0 0 4.2490797 4.2489786"
   version="1.1"
   id="svg154996"
   xmlns="http://www.w3.org/2000/svg"
   xmlns:svg="http://www.w3.org/2000/svg">
  <defs
     id="defs154993" />
  <g
     id="layer1"
     transform="translate(-102.84548,-146.33526)">
    <path
       id="path157892"
       style="fill:none;stroke:#000000;stroke-width:0.250312"
       d="m 106.9694,148.45975 a 1.9993821,1.9993345 0 0 1 -1.99938,1.99933 1.9993821,1.9993345 0 0 1 -1.99939,-1.99933 1.9993821,1.9993345 0 0 1 1.99939,-1.99934 1.9993821,1.9993345 0 0 1 1.99938,1.99934 z" />
    <path
       style="fill:#000000;fill-opacity:1;stroke:none;stroke-width:0.0120048;stroke-opacity:1"
       d="m 104.77204,149.80177 c -0.78637,-0.13208 -1.2807,-0.93819 -1.0547,-1.71972 0.0605,-0.20956 0.17753,-0.40337 0.34433,-0.57079 0.16978,-0.17039 0.3653,-0.28342 0.60078,-0.34729 0.10525,-0.0285 0.14231,-0.0325 0.31122,-0.0336 0.20551,-0.001 0.26634,0.008 0.43477,0.0651 0.19892,0.0675 0.39085,0.19296 0.53779,0.35149 0.10355,0.11158 0.16207,0.19912 0.23271,0.34761 0.17974,0.3778 0.17296,0.81384 -0.0186,1.19413 -0.25963,0.51543 -0.82766,0.80713 -1.38834,0.71293 z"
       id="path162696" />
  </g>
</svg>
