<?xml version="1.0" encoding="UTF-8" standalone="no"?>
<!-- Created with Inkscape (http://www.inkscape.org/) -->

<svg
   width="4.2490797mm"
   height="4.2489786mm"
   viewBox="0 0 4.2490797 4.2489786"
   version="1.1"
   id="svg154996"
   inkscape:version="1.1.1 (3bf5ae0d25, 2021-09-20)"
   sodipodi:docname="finalState.svg"
   xmlns:inkscape="http://www.inkscape.org/namespaces/inkscape"
   xmlns:sodipodi="http://sodipodi.sourceforge.net/DTD/sodipodi-0.dtd"
   xmlns="http://www.w3.org/2000/svg"
   xmlns:svg="http://www.w3.org/2000/svg">
  <sodipodi:namedview
     id="namedview154998"
     pagecolor="#ffffff"
     bordercolor="#666666"
     borderopacity="1.0"
     inkscape:pageshadow="2"
     inkscape:pageopacity="0.0"
     inkscape:pagecheckerboard="0"
     inkscape:document-units="mm"
     showgrid="false"
     fit-margin-top="0"
     fit-margin-left="0"
     fit-margin-right="0"
     fit-margin-bottom="0"
     inkscape:zoom="20.496745"
     inkscape:cx="15.05117"
     inkscape:cy="9.9284056"
     inkscape:window-width="1920"
     inkscape:window-height="1057"
     inkscape:window-x="1912"
     inkscape:window-y="-8"
     inkscape:window-maximized="1"
     inkscape:current-layer="layer1" />
  <defs
     id="defs154993" />
  <g
     inkscape:label="Layer 1"
     inkscape:groupmode="layer"
     id="layer1"
     transform="translate(-102.84548,-146.33526)">
    <g
       id="g162817"
       transform="matrix(0.94459005,0,0,0.94456752,-1.2161391,10.267154)">
      <circle
         style="fill:none;fill-opacity:1;stroke:#000000;stroke-width:0.264999;stroke-opacity:1"
         id="path157892"
         cx="112.41507"
         cy="146.30251"
         r="2.1166666" />
      <path
         style="fill:#000000;fill-opacity:1;stroke:none;stroke-width:0.0345528;stroke-opacity:1"
         d="m 35.712068,3.6906665 c -2.263329,-0.380321 -3.686139,-2.70032142 -3.03565,-4.9498614 0.174412,-0.6031571 0.510939,-1.1610291 0.991045,-1.642886 0.488648,-0.4904298 1.051423,-0.8157645 1.729202,-0.9996347 0.302772,-0.082137 0.409604,-0.093628 0.895748,-0.096352 0.591488,-0.00331 0.76659,0.022917 1.251346,0.1874552 0.572565,0.1943429 1.124974,0.5553781 1.547919,1.0116661 0.297994,0.3214862 0.466456,0.5731367 0.669785,1.0005342 0.517348,1.08746134 0.497815,2.34248208 -0.05349,3.4370902 -0.747216,1.4835793 -2.382152,2.3231567 -3.995902,2.0519882 z"
         id="path162696"
         transform="matrix(0.26458333,0,0,0.26458333,102.83692,146.32832)" />
    </g>
  </g>
</svg>
