<?xml version="1.0" encoding="UTF-8" standalone="no"?>
<!-- Generator: Adobe Illustrator 16.1.0, SVG Export Plug-In . SVG Version: 6.00 Build 0)  -->

<svg
   version="1.1"
   id="Layer_1"
   x="0px"
   y="0px"
   width="10"
   height="10"
   viewBox="0.375 0.199 10 10"
   enable-background="new 0.375 0.199 55 55"
   xml:space="preserve"
   xmlns="http://www.w3.org/2000/svg"
   xmlns:svg="http://www.w3.org/2000/svg"><defs
   id="defs1139" />

<path
   style="fill:#ffffff;fill-opacity:1;stroke:#1a1d22;stroke-width:0.99994802;stroke-miterlimit:4;stroke-dasharray:none;stroke-opacity:1"
   d="M 0.87471396,5.1992589 V 0.69923401 H 5.3747402 9.874766 V 5.1992589 9.699286 H 5.3747402 0.87471396 Z"
   id="path3996" /><g
   id="g5886"
   transform="translate(-1.0325494,1.6828087)"
   style="fill:#ffffff;fill-opacity:1" /><path
   style="fill:#1a1d22;fill-opacity:1;stroke:#170d0d;stroke-width:0;stroke-linecap:round;stroke-linejoin:round;stroke-miterlimit:4;stroke-dasharray:none;stroke-opacity:1;paint-order:normal"
   d="m 8.3749994,2.9986826 c 0,-0.5051818 -0.021199,-0.927831 -1.0444254,-0.7311258 0,0 -0.7518842,2.9623793 -1.6048278,3.4658445 -0.2016534,0.1190296 -0.499831,0.1190296 -0.7014845,0 C 4.1713182,5.2299361 3.4194339,2.2675568 3.4194339,2.2675568 2.3616687,2.0131941 2.3750086,2.5135732 2.3750086,2.9986826 c 0,0.5478151 1.5238226,3.8811978 2.7974633,5.1219391 0.1075615,0.1047836 0.2859127,0.1042237 0.394011,0 C 6.8722376,6.8616711 8.3749994,3.5038644 8.3749994,2.9986826 Z"
   id="path5913" /></svg>
