<?xml version="1.0" encoding="UTF-8" standalone="no"?>
<!-- Created with Inkscape (http://www.inkscape.org/) -->

<svg
   width="6.3499999mm"
   height="5.644444mm"
   viewBox="0 0 6.3499998 5.644444"
   version="1.1"
   id="svg32796"
   xmlns:xlink="http://www.w3.org/1999/xlink"
   xmlns="http://www.w3.org/2000/svg"
   xmlns:svg="http://www.w3.org/2000/svg">
  <defs
     id="defs32793">
    <marker
       style="overflow:visible"
       id="Arrow1Lend"
       refX="0"
       refY="0"
       orient="auto">
      <path
         transform="matrix(-0.8,0,0,-0.8,-10,0)"
         style="fill:context-stroke;fill-rule:evenodd;stroke:context-stroke;stroke-width:1pt"
         d="M 0,0 5,-5 -12.5,0 5,5 Z"
         id="path1154" />
    </marker>
    <linearGradient
       id="linearGradient182721">
      <stop
         style="stop-color:#ffffff;stop-opacity:1"
         offset="0"
         id="stop182719" />
      <stop
         style="stop-color:#2f2f2f;stop-opacity:1;"
         offset="1"
         id="stop182717" />
    </linearGradient>
    <radialGradient
       xlink:href="#linearGradient182721"
       id="radialGradient182678"
       cx="349.96359"
       cy="266.18008"
       fx="349.96359"
       fy="266.18008"
       r="8.3601437"
       gradientTransform="matrix(0.60489785,0.765978,-0.80358475,0.6346251,367.57429,-168.72654)"
       gradientUnits="userSpaceOnUse" />
    <radialGradient
       xlink:href="#linearGradient182721"
       id="radialGradient182680"
       cx="349.06879"
       cy="265.92676"
       fx="349.06879"
       fy="265.92676"
       r="8.9164343"
       gradientTransform="matrix(0.56717263,0.71817986,-0.75345094,0.5950308,367.74875,-140.66635)"
       gradientUnits="userSpaceOnUse" />
  </defs>
  <g
     id="layer2">
    <g
       id="g32901"
       transform="matrix(0.24545511,0,0,0.24545511,-85.546585,-63.802908)"
       style="stroke:#000000;stroke-width:0.6;stroke-miterlimit:4;stroke-dasharray:none;stroke-opacity:1">
      <g
         id="g184175"
         style="stroke:#000000;stroke-width:0.6;stroke-miterlimit:4;stroke-dasharray:none;stroke-opacity:1">
        <path
           id="path163318"
           style="fill:url(#radialGradient182680)"
           d="m 371.82416,269.98923 a 8.4156494,8.2581692 0 0 1 -8.41565,8.25817 8.4156494,8.2581692 0 0 1 -8.41565,-8.25817 8.4156494,8.2581692 0 0 1 8.41565,-8.25817 8.4156494,8.2581692 0 0 1 8.41565,8.25817 z" />
        <path
           style="fill:url(#radialGradient182678);fill-opacity:1;stroke:#000000;stroke-width:0.6;stroke-miterlimit:4;stroke-dasharray:none;stroke-opacity:1"
           d="m 362.57278,277.67131 c -1.1745,-0.13024 -2.38928,-0.55296 -3.4221,-1.19082 -0.72683,-0.44889 -1.88458,-1.58477 -2.34742,-2.30309 -0.89602,-1.39059 -1.25763,-2.60788 -1.25322,-4.21871 0.006,-2.09701 0.74108,-3.83261 2.28633,-5.39635 2.0633,-2.08796 5.22119,-2.82156 8.08866,-1.87903 1.15877,0.38089 2.11622,0.96677 3.02942,1.85375 1.51928,1.47566 2.3142,3.34847 2.31427,5.45236 7e-5,1.99418 -0.70848,3.76575 -2.08981,5.22513 -1.69599,1.79181 -4.20111,2.72345 -6.60613,2.45676 z"
           id="path170519" />
      </g>
    </g>
  </g>
</svg>
