<?xml version="1.0" encoding="UTF-8" standalone="no"?>
<!-- Generator: Adobe Illustrator 16.1.0, SVG Export Plug-In . SVG Version: 6.00 Build 0)  -->

<svg
   version="1.1"
   id="Layer_1"
   x="0px"
   y="0px"
   width="10"
   height="10"
   viewBox="0.375 0.199 10 10"
   enable-background="new 0.375 0.199 55 55"
   xml:space="preserve"
   xmlns="http://www.w3.org/2000/svg"
   xmlns:svg="http://www.w3.org/2000/svg"
   xmlns:rdf="http://www.w3.org/1999/02/22-rdf-syntax-ns#"
   xmlns:cc="http://creativecommons.org/ns#"
   xmlns:dc="http://purl.org/dc/elements/1.1/"><metadata
   id="metadata4878"><rdf:RDF><cc:Work
       rdf:about=""><dc:format>image/svg+xml</dc:format><dc:type
         rdf:resource="http://purl.org/dc/dcmitype/StillImage" /><dc:title /></cc:Work></rdf:RDF></metadata><defs
   id="defs1139" />

<path
   style="fill:#ffffff;fill-opacity:1;stroke:#1a1d22;stroke-width:0.99994802;stroke-miterlimit:4;stroke-dasharray:none;stroke-opacity:1"
   d="m 5.3750011,0.69897389 h 4.500025 V 5.1990002 9.699026 H 5.3750011 0.87497401 V 5.1990002 0.69897389 Z"
   id="path3996" /><g
   id="g5886"
   transform="rotate(90,5.0498704,3.841581)"
   style="fill:#ffffff;fill-opacity:1" /><path
   style="fill:#1a1d22;fill-opacity:1;stroke:#170d0d;stroke-width:0;stroke-linecap:round;stroke-linejoin:round;stroke-miterlimit:4;stroke-dasharray:none;stroke-opacity:1;paint-order:normal"
   d="m 3.1749425,8.1992594 c -0.5051818,0 -0.927831,-0.021199 -0.7311258,-1.0444254 0,0 2.9623793,-0.7518842 3.4658445,-1.6048278 0.1190296,-0.2016534 0.1190296,-0.499831 0,-0.7014845 C 5.406196,3.9955782 2.4438167,3.2436939 2.4438167,3.2436939 2.189454,2.1859287 2.6898331,2.1992686 3.1749425,2.1992686 c 0.5478151,0 3.8811978,1.5238226 5.1219391,2.7974633 0.1047836,0.1075615 0.1042237,0.2859127 0,0.394011 C 7.037931,6.6964976 3.6801243,8.1992594 3.1749425,8.1992594 Z"
   id="path5913" /></svg>
