<?xml version="1.0" encoding="UTF-8" standalone="no"?>
<!-- Generator: Adobe Illustrator 16.1.0, SVG Export Plug-In . SVG Version: 6.00 Build 0)  -->

<svg
   version="1.1"
   id="Layer_1"
   x="0px"
   y="0px"
   width="10"
   height="10"
   viewBox="0.375 0.199 10 10"
   enable-background="new 0.375 0.199 55 55"
   xml:space="preserve"
   xmlns="http://www.w3.org/2000/svg"
   xmlns:svg="http://www.w3.org/2000/svg"
   xmlns:rdf="http://www.w3.org/1999/02/22-rdf-syntax-ns#"
   xmlns:cc="http://creativecommons.org/ns#"
   xmlns:dc="http://purl.org/dc/elements/1.1/"><metadata
   id="metadata4878"><rdf:RDF><cc:Work
       rdf:about=""><dc:format>image/svg+xml</dc:format><dc:type
         rdf:resource="http://purl.org/dc/dcmitype/StillImage" /><dc:title /></cc:Work></rdf:RDF></metadata><defs
   id="defs1139" />

<path
   style="fill:#ffffff;fill-opacity:1;stroke:#1a1d22;stroke-width:0.99994802;stroke-miterlimit:4;stroke-dasharray:none;stroke-opacity:1"
   d="M 9.875026,5.199001 V 9.699026 H 5.3749998 0.87497401 V 5.199001 0.69897389 H 5.3749998 9.875026 Z"
   id="path3996" /><g
   id="g5886"
   transform="rotate(180,5.8911447,4.3577256)"
   style="fill:#ffffff;fill-opacity:1" /><path
   style="fill:#1a1d22;fill-opacity:1;stroke:#170d0d;stroke-width:0;stroke-linecap:round;stroke-linejoin:round;stroke-miterlimit:4;stroke-dasharray:none;stroke-opacity:1;paint-order:normal"
   d="m 2.3747406,2.9989424 c 0,-0.5051818 0.021199,-0.927831 1.0444254,-0.7311258 0,0 0.7518842,2.9623793 1.6048278,3.4658445 0.2016534,0.1190296 0.499831,0.1190296 0.7014845,0 C 6.5784218,5.2301959 7.3303061,2.2678166 7.3303061,2.2678166 8.3880713,2.0134539 8.3747314,2.513833 8.3747314,2.9989424 c 0,0.5478151 -1.5238226,3.8811978 -2.7974633,5.1219391 -0.1075615,0.1047836 -0.2859127,0.1042237 -0.394011,0 C 3.8775024,6.8619309 2.3747406,3.5041242 2.3747406,2.9989424 Z"
   id="path5913" /></svg>
