<?xml version="1.0" encoding="UTF-8" standalone="no"?>
<!-- Created with Inkscape (http://www.inkscape.org/) -->

<svg
   width="26.458334mm"
   height="23.283333mm"
   viewBox="0 0 26.458334 23.283333"
   version="1.1"
   id="svg5"
   xmlns="http://www.w3.org/2000/svg"
   xmlns:svg="http://www.w3.org/2000/svg">
  <defs
     id="defs2" />
  <g
     id="layer1"
     transform="translate(-33.769998,-99.621042)"
     style="display:inline">
    <g
       id="g27174"
       style="fill:#bdf7ff;fill-opacity:1;stroke-width:1.33145"
       transform="matrix(0.90497727,0,0,0.96259316,-68.979206,-8.0274326)">
      <path
         id="rect902"
         style="stroke:#000000;stroke-width:0.55766;stroke-linecap:round;stroke-linejoin:round"
         d="m 119.08278,116.74998 h 21.12794 v 15.09539 h -21.12794 z" />
    </g>
    <path
       id="rect2465-5"
       style="display:inline;fill:#e3ebf8;stroke:#000000;stroke-width:0.520486;stroke-linecap:round;stroke-linejoin:round"
       d="m 36.56324,106.57853 h 4.898591 v 2.50009 H 36.56324 Z" />
    <path
       id="rect2465-3-2"
       style="display:inline;fill:#e3ebf8;stroke:#000000;stroke-width:0.520486;stroke-linecap:round;stroke-linejoin:round"
       d="m 36.588104,109.90864 h 4.898591 v 2.50009 h -4.898591 z" />
    <g
       aria-label="LA"
       transform="scale(0.99554929,1.0044706)"
       id="text8837-0"
       style="font-size:10.7782px;line-height:1.25;font-family:'Myriad Pro';-inkscape-font-specification:'Myriad Pro';display:inline;stroke-width:0.328796">
      <path
         d="m 43.567822,114.92136 v -7.26451 h 1.649064 v 5.8849 h 2.888558 v 1.37961 z"
         style="font-weight:bold;-inkscape-font-specification:'Myriad Pro Bold'"
         id="path15" />
      <path
         d="M 52.912503,113.05673 H 50.83231 l -0.517353,1.86463 h -1.702956 l 2.220309,-7.26451 h 2.15564 l 2.252644,7.26451 h -1.767625 z m -1.843072,-1.22872 h 1.605951 l -0.452684,-1.54128 q -0.097,-0.32335 -0.366459,-1.40117 h -0.02156 q -0.03233,0.14012 -0.150895,0.65747 -0.11856,0.50658 -0.183229,0.7437 z"
         style="font-weight:bold;-inkscape-font-specification:'Myriad Pro Bold'"
         id="path17" />
    </g>
  </g>
</svg>
