<?xml version="1.0" encoding="UTF-8" standalone="no"?>
<!-- Created with Inkscape (http://www.inkscape.org/) -->

<svg
   width="19.84375mm"
   height="17.4625mm"
   viewBox="0 0 19.84375 17.4625"
   version="1.1"
   id="svg5"
   xmlns="http://www.w3.org/2000/svg"
   xmlns:svg="http://www.w3.org/2000/svg">
  <defs
     id="defs2" />
  <g
     id="layer1"
     transform="translate(-80.22113,-103.92751)"
     style="display:inline">
    <g
       id="g27174"
       style="stroke-width:1.33145"
       transform="matrix(0.66324633,0,0,0.66110276,4.7072394,30.653282)">
      <path
         id="rect902"
         style="fill:#a2b5c3;stroke:#000000;stroke-width:0.55766;stroke-linecap:round;stroke-linejoin:round"
         d="m 119.08278,116.74998 h 21.12794 v 15.09539 h -21.12794 z" />
    </g>
    <path
       id="rect2465-5"
       style="display:inline;fill:#a2b5c3;stroke:#000000;stroke-width:0.369268;stroke-linecap:round;stroke-linejoin:round"
       d="m 82.057961,109.36391 h 3.590114 v 1.71704 h -3.590114 z" />
    <path
       id="rect2465-3-2"
       style="display:inline;fill:#a2b5c3;stroke:#000000;stroke-width:0.369268;stroke-linecap:round;stroke-linejoin:round"
       d="m 82.07618,111.65101 h 3.590114 v 1.71704 H 82.07618 Z" />
    <g
       aria-label="P"
       transform="scale(1.0284146,0.97237048)"
       id="text8837-0"
       style="font-size:8.33326px;line-height:1.25;font-family:'Myriad Pro';-inkscape-font-specification:'Myriad Pro';display:inline;stroke-width:0.23327">
      <path
         d="m 86.891777,118.76065 v -5.54162 q 0.683327,-0.11666 1.716651,-0.11666 1.14999,0 1.716652,0.44999 0.599994,0.475 0.599994,1.29999 0,0.84166 -0.516662,1.33332 -0.624994,0.59166 -1.824984,0.59166 -0.258331,0 -0.433329,-0.025 v 2.00831 z m 1.258322,-4.64996 v 1.65832 q 0.141665,0.0333 0.424996,0.0333 0.508329,0 0.799993,-0.24166 0.291664,-0.24167 0.291664,-0.675 0,-0.39166 -0.258331,-0.60832 -0.258331,-0.21667 -0.733327,-0.21667 -0.341663,0 -0.524995,0.05 z"
         style="font-weight:bold;-inkscape-font-specification:'Myriad Pro Bold'"
         id="path23" />
    </g>
  </g>
  <g
     id="layer6"
     style="display:none" />
  <g
     id="layer2"
     style="display:none"
     transform="translate(35.131377,8.6738565)">
    <path
       id="rect2465"
       style="fill:#a2b5c3;stroke:#000000;stroke-width:0.418835;stroke-linecap:round;stroke-linejoin:round"
       d="M 1.271909,6.4582477 H 6.6848524 V 9.0554919 H 1.271909 Z" />
    <path
       id="rect2465-3"
       style="fill:#a2b5c3;stroke:#000000;stroke-width:0.418835;stroke-linecap:round;stroke-linejoin:round"
       d="M 1.2993798,9.9177628 H 6.7123232 V 12.515007 H 1.2993798 Z" />
  </g>
  <g
     id="layer3"
     style="display:none"
     transform="translate(35.131377,8.6738565)" />
  <g
     id="layer4"
     style="display:none"
     transform="translate(35.131377,8.6738565)">
    <g
       aria-label="CI"
       transform="matrix(1.0267514,0,0,0.97394559,-115.35251,-112.60136)"
       id="text8837"
       style="font-size:12.5847px;line-height:1.25;font-family:'Myriad Pro';-inkscape-font-specification:'Myriad Pro';stroke-width:0.264583">
      <path
         d="m 128.31477,130.17341 0.28944,1.49758 q -0.75508,0.37754 -2.17715,0.37754 -2.12681,0 -3.28461,-1.18296 -1.15779,-1.18297 -1.15779,-3.07067 0,-2.10165 1.30881,-3.29719 1.32139,-1.20813 3.32236,-1.20813 1.35915,0 2.08906,0.37754 l -0.39012,1.52275 q -0.75509,-0.31462 -1.61085,-0.31462 -1.19554,0 -1.95062,0.72991 -0.75509,0.71733 -0.75509,2.07648 0,1.28364 0.71733,2.02613 0.72991,0.7425 2.00097,0.7425 0.9061,0 1.59826,-0.27686 z"
         style="font-weight:bold;-inkscape-font-specification:'Myriad Pro Bold'"
         id="path28" />
      <path
         d="m 129.86268,123.42801 h 1.92545 v 8.48209 h -1.92545 z"
         style="font-weight:bold;-inkscape-font-specification:'Myriad Pro Bold'"
         id="path30" />
    </g>
  </g>
</svg>
