<?xml version="1.0" encoding="UTF-8" standalone="no"?>
<!-- Created with Inkscape (http://www.inkscape.org/) -->

<svg
   width="19.84375mm"
   height="17.4625mm"
   viewBox="0 0 19.84375 17.4625"
   version="1.1"
   id="svg5"
   xmlns="http://www.w3.org/2000/svg"
   xmlns:svg="http://www.w3.org/2000/svg">
  <defs
     id="defs2" />
  <g
     id="layer1"
     transform="translate(-58.342097,-104.10422)"
     style="display:inline">
    <g
       id="g22774"
       transform="matrix(0.9556067,0,0,0.9556067,2.5822046,5.2604748)">
      <g
         id="g27174"
         style="fill:#fff426;fill-opacity:1;stroke-width:1.33145"
         transform="matrix(0.75227475,0,0,0.74984345,-27.867648,19.424584)">
        <path
           id="rect902"
           style="stroke:#000000;stroke-width:0.55766;stroke-linecap:round;stroke-linejoin:round"
           d="m 119.08278,116.74998 h 21.12794 v 15.09539 h -21.12794 z" />
      </g>
      <path
         id="rect2465-5"
         style="display:inline;fill:#fff426;stroke:#000000;stroke-width:0.418835;stroke-linecap:round;stroke-linejoin:round"
         d="m 59.865955,108.70065 h 4.072021 v 1.94753 h -4.072021 z" />
      <path
         id="rect2465-3-2"
         style="display:inline;fill:#fff426;stroke:#000000;stroke-width:0.418835;stroke-linecap:round;stroke-linejoin:round"
         d="m 59.886623,111.29475 h 4.072021 v 1.94752 h -4.072021 z" />
      <g
         aria-label="P"
         transform="scale(1.0284146,0.97237048)"
         id="text8837-0"
         style="font-size:9.45184px;line-height:1.25;font-family:'Myriad Pro';-inkscape-font-specification:'Myriad Pro';display:inline;stroke-width:0.264582">
        <path
           d="m 65.807636,119.08659 v -6.28547 q 0.775051,-0.13233 1.94708,-0.13233 1.304354,0 1.947079,0.5104 0.680532,0.53876 0.680532,1.47449 0,0.95464 -0.586014,1.51229 -0.708888,0.67109 -2.069953,0.67109 -0.293007,0 -0.491496,-0.0284 v 2.27789 z m 1.427228,-5.27412 v 1.88091 q 0.160682,0.0378 0.482044,0.0378 0.576562,0 0.907377,-0.2741 0.330814,-0.27411 0.330814,-0.7656 0,-0.44424 -0.293007,-0.68999 -0.293007,-0.24574 -0.831762,-0.24574 -0.387525,0 -0.595466,0.0567 z"
           style="font-weight:bold;-inkscape-font-specification:'Myriad Pro Bold'"
           id="path16" />
      </g>
    </g>
  </g>
</svg>
